<svg width="18" height="18" viewBox="0 0 18 18" fill="none" xmlns="http://www.w3.org/2000/svg"><path d="M8.20347 6.66667C8.20347 7.09622 7.85525 7.44444 7.42569 7.44444C6.99614 7.44444 6.64792 7.09622 6.64792 6.66667C6.64792 6.23711 6.99614 5.88889 7.42569 5.88889C7.85525 5.88889 8.20347 6.23711 8.20347 6.66667Z" fill="#6A7BFF"/><path d="M10.5331 7.44444C10.9627 7.44444 11.3109 7.09622 11.3109 6.66667C11.3109 6.23711 10.9627 5.88889 10.5331 5.88889C10.1036 5.88889 9.75537 6.23711 9.75537 6.66667C9.75537 7.09622 10.1036 7.44444 10.5331 7.44444Z" fill="#6A7BFF"/><path fill-rule="evenodd" clip-rule="evenodd" d="M14.4444 16V7.44444C14.4444 4.43756 12.0069 2 9 2C5.99312 2 3.55556 4.43756 3.55556 7.44444V16L5.75547 16L6.85539 14.9L7.95533 16L10.0448 16L11.1447 14.9L12.2446 16L14.4444 16ZM12.8889 7.44444C12.8889 5.29667 11.1478 3.55556 9 3.55556C6.85223 3.55556 5.11111 5.29667 5.11111 7.44444V14.4444L6.85539 12.7001L9.00004 14.8448L11.1447 12.7001L12.8889 14.4444V7.44444Z" fill="#6A7BFF"/></svg>