<svg width="22" height="22" viewBox="0 0 22 22" fill="none" xmlns="http://www.w3.org/2000/svg"><path d="M6.875 7.5625C6.875 7.1828 7.1828 6.875 7.5625 6.875H14.4375C14.8172 6.875 15.125 7.1828 15.125 7.5625C15.125 7.9422 14.8172 8.25 14.4375 8.25H7.5625C7.1828 8.25 6.875 7.9422 6.875 7.5625Z" fill="#2E3A59"/><path d="M6.875 10.3125C6.875 9.9328 7.1828 9.625 7.5625 9.625H14.4375C14.8172 9.625 15.125 9.9328 15.125 10.3125C15.125 10.6922 14.8172 11 14.4375 11H7.5625C7.1828 11 6.875 10.6922 6.875 10.3125Z" fill="#2E3A59"/><path d="M7.5625 12.375C7.1828 12.375 6.875 12.6828 6.875 13.0625C6.875 13.4422 7.1828 13.75 7.5625 13.75H14.4375C14.8172 13.75 15.125 13.4422 15.125 13.0625C15.125 12.6828 14.8172 12.375 14.4375 12.375H7.5625Z" fill="#2E3A59"/><path d="M6.875 15.8125C6.875 15.4328 7.1828 15.125 7.5625 15.125H10.3125C10.6922 15.125 11 15.4328 11 15.8125C11 16.1922 10.6922 16.5 10.3125 16.5H7.5625C7.1828 16.5 6.875 16.1922 6.875 15.8125Z" fill="#2E3A59"/><path fill-rule="evenodd" clip-rule="evenodd" d="M4.125 6.1875C4.125 5.04841 5.04841 4.125 6.1875 4.125H15.8125C16.9516 4.125 17.875 5.04841 17.875 6.1875V17.1875C17.875 18.3266 16.9516 19.25 15.8125 19.25H6.1875C5.04841 19.25 4.125 18.3266 4.125 17.1875V6.1875ZM6.1875 5.5H15.8125C16.1922 5.5 16.5 5.8078 16.5 6.1875V17.1875C16.5 17.5672 16.1922 17.875 15.8125 17.875H6.1875C5.8078 17.875 5.5 17.5672 5.5 17.1875V6.1875C5.5 5.8078 5.8078 5.5 6.1875 5.5Z" fill="#2E3A59"/></svg>