<svg width="32" height="32" viewBox="0 0 32 32" fill="none" xmlns="http://www.w3.org/2000/svg"><path d="M8.46305 16.0001C8.46305 20.1578 11.8453 23.5401 16.003 23.5401C20.1607 23.5401 23.543 20.1578 23.543 16.0001C23.543 11.8424 20.1607 8.46016 16.003 8.46016C11.8453 8.46016 8.46305 11.8424 8.46305 16.0001ZM16.003 11.4719C18.4998 11.4719 20.5312 13.5034 20.5312 16.0001C20.5312 18.4969 18.4998 20.5283 16.003 20.5283C13.5062 20.5283 11.4748 18.4969 11.4748 16.0001C11.4748 13.5034 13.5062 11.4719 16.003 11.4719ZM14.4941 26.5413H17.5059V31.0589H14.4941V26.5413ZM14.4941 0.941284H17.5059V5.45893H14.4941V0.941284ZM0.941162 14.4942H5.45881V17.506H0.941162V14.4942ZM26.5412 14.4942H31.0588V17.506H26.5412V14.4942Z" fill="#6A7BFF"/><path d="M4.28579 25.5826L7.47931 22.3872L9.60958 24.5162L6.41607 27.7116L4.28579 25.5826Z" fill="#6A7BFF"/><path d="M22.3883 7.48221L25.5838 4.28663L27.7134 6.41623L24.518 9.61181L22.3883 7.48221Z" fill="#6A7BFF"/><path d="M7.48232 9.61303L4.28881 6.41762L6.41908 4.28861L9.61259 7.48402L7.48232 9.61303Z" fill="#6A7BFF"/><path d="M27.7124 25.5828L25.5828 27.7125L22.3872 24.517L24.5168 22.3874L27.7124 25.5828Z" fill="#6A7BFF"/></svg>