<svg width="25" height="25" viewBox="0 0 25 25" fill="none" xmlns="http://www.w3.org/2000/svg"><path fill-rule="evenodd" clip-rule="evenodd" d="M24.5365 1.34288C24.047 0.851826 23.2938 0.742488 22.5216 1.05041L20.7105 1.77272C20.3393 1.92072 19.9827 2.15992 19.6791 2.46438L16.1286 6.02569V0.846423C16.1286 0.812861 16.1267 0.779754 16.1229 0.747211V0H15.2848H14.4537V0.698923C14.4453 0.746824 14.4409 0.796111 14.4409 0.846423V7.71862L12.4999 9.66543L10.559 7.71862V0.846423C10.559 0.796226 10.5547 0.747048 10.5463 0.69925V0H9.71519H8.87713V0.746713C8.8733 0.779416 8.87133 0.812689 8.87133 0.846423V6.02569L5.32075 2.46438C5.01722 2.15992 4.66057 1.92081 4.28944 1.7728L2.47833 1.05041C1.70611 0.742404 0.952912 0.851826 0.46335 1.34288C-0.0262113 1.83401 -0.135302 2.58959 0.171768 3.36399L0.891885 5.18053C1.03944 5.55287 1.27791 5.91061 1.58145 6.21506L8.76064 13.4161L2.63077 19.5646C1.55729 20.6415 1.35266 22.1232 2.16495 22.9379L3.00712 23.7827C3.34163 24.1181 3.78868 24.2806 4.27403 24.2806C4.96747 24.2806 5.73868 23.9488 6.37024 23.3154L8.8715 20.8065V22.3461H7.94366V24.0389H8.83949V25.0002H10.5846V24.0389H11.4871V22.3461H10.5592V19.1136L12.5001 17.1668L14.441 19.1136V22.3461H13.5132V24.0389H14.3779V25.0002H16.123V24.2439C16.1268 24.2114 16.1287 24.1783 16.1287 24.1447V24.0389H17.0566V22.3461H16.1287V20.8065L18.63 23.3154C19.2616 23.9489 20.0327 24.2806 20.7262 24.2806C21.2115 24.2806 21.6587 24.1181 21.9931 23.7827L22.8353 22.9379C23.6475 22.1232 23.4429 20.6415 22.3695 19.5646L16.2396 13.4161L23.4188 6.21506C23.7223 5.91061 23.9607 5.55287 24.1083 5.18061L24.8285 3.36399C25.1352 2.58959 25.0262 1.83401 24.5365 1.34288ZM14.4409 11.6122L13.6934 10.8625L14.4409 10.1127V11.6122ZM2.46015 4.55506L1.73995 2.73844C1.71343 2.67157 1.69963 2.61737 1.69298 2.57633C1.73389 2.583 1.78793 2.59693 1.85459 2.62345L3.66579 3.34592C3.82302 3.40857 3.98683 3.52061 4.12723 3.66144L8.87125 8.4199V11.133L2.77479 5.018C2.63439 4.87725 2.52277 4.71286 2.46015 4.55506ZM5.17656 22.1184C4.7418 22.5544 4.29903 22.6253 4.19491 22.5802L3.36368 21.7464C3.31848 21.6421 3.38919 21.198 3.82412 20.7618L8.87125 15.6993V18.4124L5.17656 22.1184ZM10.559 15.2201L11.3065 15.9698L10.559 16.7196V15.2201ZM10.559 12.8259V10.1127L14.4409 14.0064V16.7195L10.559 12.8259ZM21.6361 21.7464L20.8049 22.5802C20.7009 22.626 20.2579 22.5545 19.8233 22.1184L16.1286 18.4124V15.6993L21.1757 20.7618C21.6106 21.1981 21.6814 21.6422 21.6361 21.7464ZM23.2599 2.73844L22.5396 4.55515C22.4771 4.71286 22.3654 4.87717 22.225 5.018L16.1286 11.133V8.4199L20.8726 3.66144C21.0129 3.52061 21.1768 3.40857 21.3341 3.34584L23.1452 2.62345C23.2119 2.59685 23.2659 2.583 23.3068 2.57633C23.3002 2.61737 23.2864 2.67157 23.2599 2.73844Z" fill="#6A7BFF"/></svg>