<svg width="76" height="45" viewBox="0 0 76 45" fill="none" xmlns="http://www.w3.org/2000/svg"><path d="M75.8401 0.224609H0.499023V14.7995H75.8401V0.224609Z" fill="#000"/><path d="M75.8401 14.799H0.499023V29.3739H75.8401V14.799Z" fill="#E1001F"/><path d="M75.8401 29.5978H0.499023V44.1728H75.8401V29.5978Z" fill="#F6D928"/><path d="M27.8535 10.5375V28.0274C27.8535 34.5301 36.5985 33.8574 38.1681 36.5481C39.7377 33.8574 48.4827 34.7543 48.4827 28.0274V10.5375H27.8535Z" fill="#F6D728"/><path d="M38.1687 36.7726C37.496 35.6514 36.1506 35.203 34.3568 34.7545C31.4418 33.8576 27.6299 32.5122 27.6299 28.2518V10.5377H48.7075V28.2518C48.7075 32.5122 45.1198 33.6334 41.9806 34.7545C40.411 35.203 38.8414 35.6514 38.1687 36.7726ZM27.8541 10.7619V28.2518C27.8541 32.5122 31.4418 33.6334 34.3568 34.5303C36.1506 35.203 37.496 35.6514 38.1687 36.5483C38.8414 35.6514 40.1868 35.203 41.9806 34.5303C45.1198 33.4091 48.4833 32.288 48.4833 28.2518V10.7619H27.8541Z" fill="#000"/><path d="M37.4964 13.229C37.4964 13.6775 37.4964 15.0229 37.0479 15.4713C36.8237 15.9198 36.151 16.5925 36.151 17.4894C35.9268 21.5255 37.2722 27.1313 38.1691 31.1674C39.066 27.1313 40.4114 21.3013 40.1871 17.4894C39.9629 13.4532 39.2902 12.5563 39.2902 12.5563L37.4964 13.229Z" fill="#000"/><path d="M37.7214 13.6765C36.8244 13.6765 35.9276 13.4522 35.2549 13.0038C35.4791 13.4522 36.1518 13.6765 37.0487 13.9007L37.7214 13.6765Z" fill="#CA001C"/><path d="M37.2729 13.9022C36.376 13.6779 35.7033 13.4537 35.2549 13.0052C35.9276 13.2294 36.8244 13.4537 37.7214 13.4537C36.8244 13.4537 35.9276 13.2295 35.2549 12.781C35.4791 13.4537 36.1518 13.6779 37.2729 13.9022Z" fill="#000"/><path d="M37.496 11.6617C35.9264 10.7648 35.0295 11.6617 35.9264 13.2313C35.9264 13.007 37.0475 12.5586 37.496 13.904C37.2718 14.1282 36.599 14.1282 35.7021 13.904C36.1506 14.3524 37.496 14.3524 37.9444 14.1282C38.1687 13.9039 37.496 12.5586 37.496 12.5586V11.6617Z" fill="#CA001C"/><path d="M37.2718 14.1249C36.8234 14.1249 35.9264 14.1249 35.7022 13.6764C36.5991 13.6764 37.2719 13.6764 37.4961 13.6764C37.2719 13.0037 36.8233 12.7795 36.5991 12.7795C36.3749 12.7795 36.1507 13.0037 36.1507 13.0037C35.7022 12.331 35.478 11.6584 35.7022 11.4341C35.9264 10.9857 36.8234 10.9857 37.4961 11.4341C36.8234 10.9857 36.1507 10.9857 35.7022 11.4341C35.478 11.6584 35.478 12.331 35.9265 13.0037C35.9265 12.7795 36.1507 12.7795 36.3749 12.7795C36.5992 12.7795 37.0476 13.0037 37.4961 13.6764C37.2719 13.9006 36.5991 13.9006 35.7022 13.6764C36.1507 13.9006 37.496 14.1249 37.9445 13.9007C38.1687 13.9007 37.7203 13.0037 37.4961 12.5553C37.7203 12.7795 38.393 13.9006 37.9445 14.1249C37.9445 14.1249 37.7203 14.1249 37.2718 14.1249Z" fill="#000"/><path d="M39.2899 12.5565C39.5141 12.5565 39.9626 12.3323 40.1868 12.108C39.5141 12.108 38.6172 11.8838 38.1688 11.6596C37.7203 11.4354 37.0476 10.9869 37.0476 11.8838C37.0476 12.7807 37.9445 13.4534 37.9445 14.1261L39.2899 12.5565Z" fill="#000"/><path d="M38.1687 12.1079C38.1687 12.1079 37.7203 11.8837 37.496 11.6595C37.496 11.6595 37.2717 12.3322 37.7202 12.5564C37.7202 12.3322 37.9445 12.1079 38.1687 12.1079Z" fill="#F0F7FF"/><path d="M37.7212 11.6595C37.497 11.6595 37.4971 11.8837 37.4971 12.3322C37.4971 12.108 37.7213 11.8837 37.9455 11.8837L37.7212 11.6595Z" fill="#000"/><path d="M40.635 18.8338V25.1122L47.5861 30.9421V15.4703C47.5861 14.3492 47.3619 13.4522 46.9134 13.0038V16.143L40.635 18.8338Z" fill="#000"/><path d="M41.9808 30.272H41.7566V17.0425H41.9808V30.272Z" fill="#F6D728"/><path d="M44.8942 30.272H44.6699V17.0425H44.8942V30.272Z" fill="#F6D728"/><path d="M46.4642 30.272H46.24V17.0425H46.4642V30.272Z" fill="#F6D728"/><path d="M39.0652 20.1788C43.774 20.1788 45.7921 18.6091 46.9132 17.488V13.2276C47.3617 13.0034 47.8101 12.7792 47.8101 12.1065C46.2405 13.2276 43.9982 10.5369 42.6529 13.4519C43.3256 15.0215 44.8952 14.7972 45.3437 13.9003C46.4648 14.7972 45.5679 18.1607 39.2894 18.1607V20.1788H39.0652Z" fill="#000"/><path d="M40.8594 30.4951C40.4109 30.9436 40.8593 31.392 41.0836 31.6163C41.0836 31.392 41.0836 30.9436 41.3078 30.7194L40.8594 30.4951Z" fill="#CA001C"/><path d="M41.3093 31.3934C41.085 31.3934 40.8608 31.1692 40.8608 30.9449C40.8608 30.7207 40.8608 30.4965 41.085 30.2723C40.8608 30.4965 40.8608 30.7207 40.8608 30.7207C40.8608 31.1692 41.085 31.3934 41.3093 31.3934C41.085 31.1692 41.085 30.7207 41.3093 30.4965C41.085 30.9449 41.085 31.1692 41.3093 31.3934Z" fill="#000"/><path d="M42.652 32.2869C42.652 32.5111 42.652 32.7353 42.4277 33.1838C43.1004 32.9595 43.3247 32.7353 43.1005 32.5111L42.652 32.2869Z" fill="#CA001C"/><path d="M42.4277 32.961C42.652 32.5126 42.652 32.2883 42.652 32.0641C42.8762 32.2883 42.652 32.7368 42.4277 32.961C42.8762 32.7368 43.1005 32.7368 43.1005 32.5126V32.2883C43.3247 32.2883 43.3247 32.5126 43.1005 32.5126C43.1005 32.7368 42.8762 32.961 42.4277 32.961Z" fill="#000"/><path d="M44.8955 31.3896C44.8955 31.6138 45.1197 31.838 44.8955 32.2865C45.344 31.838 45.5682 31.3896 45.1198 31.1653L44.8955 31.3896Z" fill="#CA001C"/><path d="M44.8955 32.2865C44.8955 31.838 44.8955 31.6138 44.8955 31.3896C44.8955 31.6138 45.1197 31.838 44.8955 32.2865C45.1197 32.0623 45.344 31.6138 45.344 31.3896C45.344 31.3896 45.344 31.1653 45.1198 31.1653C45.344 31.1653 45.344 31.1654 45.344 31.3896C45.5682 31.6138 45.344 32.0623 44.8955 32.2865Z" fill="#000"/><path d="M44.8951 29.5992C45.1194 29.5992 45.3436 29.8234 45.3436 30.0477C45.3436 29.375 45.3436 29.1508 44.6709 29.1508L44.8951 29.5992Z" fill="#CA001C"/><path d="M45.3436 30.0477C45.1194 29.8234 44.8951 29.5992 44.6709 29.5992C44.8951 29.5992 45.1194 29.5992 45.3436 30.0477C45.3436 29.375 45.1194 29.1508 44.6709 29.1508C45.3436 29.1508 45.3436 29.375 45.3436 30.0477Z" fill="#000"/><path d="M40.1858 27.8036L42.6523 30.0459C42.6523 30.0459 41.7554 30.2702 41.3069 30.2702C40.8585 30.2702 40.6343 30.2701 40.6343 30.4944C40.6343 30.4944 40.8585 30.4944 41.0827 30.7186C41.0827 30.9428 41.307 31.167 41.5312 30.9428C41.7554 30.7186 42.4281 30.4944 42.4281 30.4944C42.4281 30.4944 42.4281 31.6155 42.4281 31.8398C42.4281 32.064 42.2039 32.2882 42.4281 32.2882C42.4281 32.2882 42.4281 32.2882 42.8766 32.2882C43.325 32.2882 43.325 32.5124 43.1008 31.8398C43.1008 31.1671 43.1008 30.4944 43.1008 30.4944C43.1008 30.4944 43.9977 31.1671 44.4461 31.6155C44.6704 32.064 44.6704 31.6155 44.8946 31.6155C45.1189 31.3913 45.3431 31.3913 45.3431 31.3913C45.5673 31.3913 44.8946 31.1671 44.6704 31.1671C44.4462 31.1671 43.325 30.2702 43.325 30.2702C43.325 30.2702 43.9977 30.0459 44.4461 30.0459C44.8946 30.0459 44.8946 30.0459 44.8946 29.8217C44.8946 29.5974 44.8946 29.3732 44.8946 29.3732C44.8946 29.3732 44.8946 29.149 44.6704 29.3732C44.4462 29.5974 43.1008 30.0459 43.1008 30.0459L41.0827 27.3552L40.1858 27.8036Z" fill="#CA001C"/><path d="M43.325 32.2897C43.1008 32.2897 43.1008 32.2897 43.325 32.2897H43.1008C42.8766 32.2897 42.6523 32.2897 42.6523 32.2897H42.4281C42.4281 32.2897 42.4281 32.0654 42.4281 31.8412V31.617C42.4281 31.3927 42.4281 30.4958 42.4281 30.2716C42.4281 30.2716 41.7554 30.4958 41.5312 30.7201H41.3069C41.0827 30.7201 41.0827 30.4958 41.0827 30.4958L40.8585 30.2716H40.6343C40.6343 30.0474 41.0827 30.0474 41.3069 30.0474C41.7554 30.0474 42.6523 29.8231 42.6523 29.8231L40.1858 27.5808L42.6523 29.8231C42.6523 29.8231 41.7554 30.0474 41.3069 30.0474C41.0827 30.0474 40.8585 30.0474 40.6343 30.2716C40.6343 30.2716 40.6343 30.2716 40.8585 30.4958C40.8585 30.4958 41.0827 30.4958 41.0827 30.7201C41.0827 30.9443 41.3069 30.9443 41.3069 30.9443C41.3069 30.9443 41.307 30.9443 41.5312 30.9443C41.7554 30.7201 42.4281 30.4958 42.4281 30.4958V31.8412V32.0654V32.2897C42.6523 32.2897 42.6523 32.2897 42.8766 32.2897H43.325C43.1008 32.2897 43.325 32.2897 43.325 32.2897V32.0654V31.8412C43.325 31.1685 43.325 30.4958 43.325 30.4958C43.325 30.4958 44.2219 31.1685 44.6704 31.617C44.8946 31.8412 44.8946 31.8412 44.8946 31.8412C44.8946 31.8412 44.8946 31.8412 44.8946 31.617C45.1189 31.3927 45.1189 31.3928 45.3431 31.3928C45.3431 31.3928 45.1189 31.3928 45.1189 31.1685C44.8946 31.1685 44.8946 31.1685 44.8946 30.9443C44.6704 30.9443 43.5492 30.0474 43.5492 30.0474C43.5492 30.0474 44.2219 29.8231 44.6704 29.8231C44.8946 29.8231 44.8946 29.8231 45.1189 29.8231C45.1189 29.8231 45.1189 29.8232 45.1189 29.5989C45.1189 29.3747 45.1189 29.3747 45.1189 29.1505C45.1189 29.1505 45.1189 29.1505 44.8946 29.1505C44.6704 29.3747 43.5492 29.8231 43.325 29.8231L41.3069 27.1324L43.325 29.8231C43.325 29.8231 44.4462 29.3747 44.6704 29.1505C44.8946 29.1505 44.8946 28.9262 44.8946 28.9262C44.8946 28.9262 44.8946 28.9262 44.8946 29.1505C44.8946 29.1505 44.8946 29.1505 44.8946 29.3747C44.8946 29.3747 44.8946 29.5989 44.8946 29.8231V30.0474C44.8946 30.0474 44.6704 30.0474 44.4461 30.0474C43.9977 30.0474 43.5492 30.2716 43.325 30.2716C43.5492 30.2716 44.4462 30.9443 44.6704 30.9443C44.6704 30.9443 44.8946 30.9443 44.8946 31.1685C45.1189 31.1685 45.1189 31.3928 45.1189 31.3928H44.8946C44.6704 31.3928 44.6704 31.3927 44.4461 31.617C44.4461 31.617 44.4461 31.617 44.4461 31.8412C44.4461 31.8412 44.4462 32.0654 44.222 32.0654C44.222 32.0654 43.9977 32.0654 43.9977 31.8412C43.7735 31.3928 42.8766 30.9443 42.6523 30.7201C42.6523 30.7201 42.6523 31.3927 42.6523 32.0654V32.2897C43.325 32.2897 43.325 32.2897 43.325 32.2897Z" fill="#000"/><path d="M38.1678 34.5309L39.289 33.1855C40.6344 33.8582 41.5313 33.634 41.9798 32.5128C40.1859 32.7371 39.289 31.1675 39.289 27.3556L40.6344 29.5979V27.5798L42.4282 27.804L37.9436 22.871L38.1678 34.5309Z" fill="#000"/><path d="M35.9253 18.8338V25.1122L28.9741 30.9421V15.4703C28.9741 14.3492 29.1984 13.4522 29.6469 13.0038V16.143L35.9253 18.8338Z" fill="#000"/><path d="M34.8043 30.272H34.5801V17.0425H34.8043V30.272Z" fill="#F6D728"/><path d="M33.2371 30.272H33.0129V17.0425H33.2371V30.272Z" fill="#F6D728"/><path d="M31.6671 30.272H31.4429V17.0425H31.6671V30.272Z" fill="#F6D728"/><path d="M30.3199 30.272H30.0957V17.0425H30.3199V30.272Z" fill="#F6D728"/><path d="M37.2728 20.1788C32.564 20.1788 30.5459 18.6091 29.4247 17.488V13.2276C28.9763 13.0034 28.5278 12.7792 28.5278 12.1065C30.0974 13.2276 32.3397 10.5369 33.6851 13.4519C33.0124 15.0215 31.4428 14.7972 30.9943 13.9003C29.8732 14.7972 30.7701 18.1607 37.0485 18.1607V20.1788H37.2728Z" fill="#000"/><path d="M35.4777 30.4951C35.9262 30.9436 35.4778 31.392 35.2535 31.6163C35.2535 31.392 35.2535 30.9436 35.0293 30.7194L35.4777 30.4951Z" fill="#CA001C"/><path d="M35.2535 31.3921C35.2535 30.9436 35.2535 30.7193 35.0293 30.4951C35.2535 30.7193 35.4778 31.1678 35.2535 31.3921C35.4778 31.1678 35.4777 31.1678 35.702 30.9436C35.702 30.7193 35.7019 30.4951 35.4777 30.4951C35.7019 30.7193 35.702 30.9436 35.702 31.1678C35.702 31.1678 35.4778 31.3921 35.2535 31.3921Z" fill="#000"/><path d="M33.6854 32.2869C33.6854 32.5111 33.6854 32.7353 33.9096 33.1838C33.237 32.9595 33.0127 32.7353 33.2369 32.5111L33.6854 32.2869Z" fill="#CA001C"/><path d="M34.1326 32.961C33.6841 32.961 33.4598 32.7368 33.2356 32.5126C33.2356 32.5126 33.2356 32.2883 33.2356 32.0641C33.2356 32.2883 33.2356 32.2883 33.2356 32.5126C33.4598 32.7368 33.6841 32.7368 34.1326 32.961C33.9083 32.7368 33.6841 32.5126 33.6841 32.2883C33.6841 32.2883 33.9083 32.7368 34.1326 32.961Z" fill="#000"/><path d="M31.666 31.3896C31.666 31.6138 31.4417 31.838 31.666 32.2865C31.2175 31.838 30.9933 31.3896 31.4417 31.1653L31.666 31.3896Z" fill="#CA001C"/><path d="M31.6651 32.2865C31.2167 32.0623 30.9924 31.6138 31.2166 31.3896C31.2166 31.1654 31.2166 31.1653 31.4409 31.1653L31.2166 31.3896C30.9924 31.6138 31.2167 31.838 31.6651 32.2865C31.4409 32.0623 31.4409 31.6138 31.6651 31.3896C31.4409 31.6138 31.4409 31.838 31.6651 32.2865Z" fill="#000"/><path d="M31.6648 29.5992C31.4406 29.5992 31.2163 29.8234 31.2163 30.0477C31.2163 29.375 31.2163 29.1508 31.889 29.1508L31.6648 29.5992Z" fill="#CA001C"/><path d="M31.2166 30.0434C31.2166 29.3708 31.2167 29.1465 31.6651 28.9223C31.2167 29.1465 30.9924 29.3708 31.2166 30.0434C31.4409 29.595 31.4409 29.595 31.6651 29.3708C31.4409 29.595 31.2166 29.8192 31.2166 30.0434Z" fill="#000"/><path d="M36.3751 27.8036L33.9085 30.0459C33.9085 30.0459 34.8054 30.2702 35.2539 30.2702C35.7024 30.2702 35.9266 30.2701 35.9266 30.4944C35.9266 30.4944 35.7023 30.4944 35.4781 30.7186C35.4781 30.9428 35.2539 31.167 35.0297 30.9428C34.8054 30.7186 34.1328 30.4944 34.1328 30.4944C34.1328 30.4944 34.1328 31.6155 34.1328 31.8398C34.1328 32.064 34.357 32.2882 34.1328 32.2882C34.1328 32.2882 34.1327 32.2882 33.6843 32.2882C33.2358 32.2882 33.2358 32.5124 33.46 31.8398C33.46 31.1671 33.46 30.4944 33.46 30.4944C33.46 30.4944 32.5631 31.1671 32.1146 31.6155C31.8904 32.064 31.8905 31.6155 31.6662 31.6155C31.442 31.3913 31.2177 31.3913 31.2177 31.3913C30.9935 31.3913 31.6662 31.1671 31.8905 31.1671C32.1147 31.1671 33.2358 30.2702 33.2358 30.2702C33.2358 30.2702 32.5631 30.0459 32.1146 30.0459C31.6662 30.0459 31.6662 30.0459 31.6662 29.8217C31.6662 29.5974 31.6662 29.3732 31.6662 29.3732C31.6662 29.3732 31.6662 29.149 31.8905 29.3732C32.1147 29.5974 33.46 30.0459 33.46 30.0459L35.4781 27.3552L36.3751 27.8036Z" fill="#CA001C"/><path d="M33.2344 32.2892V32.065V31.8408C33.2344 31.1681 33.2344 30.7196 33.2344 30.4954C33.2344 30.4954 32.3374 31.1681 32.1132 31.6165C31.889 31.8407 31.889 31.8408 31.889 31.8408C31.889 31.8408 31.889 31.8407 31.6648 31.6165C31.6648 31.6165 31.6648 31.6165 31.6648 31.3923C31.4406 31.1681 31.4405 31.1681 31.2163 31.1681C31.2163 31.1681 31.2163 31.168 31.4406 30.9438C31.6648 30.9438 31.6648 30.9438 31.6648 30.7196C31.889 30.7196 32.786 30.0469 33.0102 30.0469C33.0102 30.0469 32.3375 29.8227 31.889 29.8227C31.6648 29.8227 31.4406 29.8227 31.4406 29.8227C31.4406 29.8227 31.4406 29.8227 31.4406 29.5985C31.4406 29.3742 31.4406 29.3742 31.4406 29.15C31.4406 29.15 31.4406 29.15 31.4406 28.9258V28.7015C31.4406 28.7015 31.6648 28.7015 31.6648 28.9258C31.889 29.15 33.0101 29.5985 33.2344 29.5985L35.2525 26.9077L33.2344 29.5985C33.2344 29.5985 31.889 29.15 31.6648 28.9258C31.4406 28.7015 31.4406 28.7015 31.4406 28.7015C31.4406 28.9258 31.4406 28.9258 31.4406 28.9258C31.4406 29.15 31.4406 29.15 31.4406 29.3742V29.5985C31.4406 29.5985 31.6648 29.5985 31.889 29.5985C32.3375 29.5985 33.0102 29.8227 33.0102 29.8227C33.0102 29.8227 31.889 30.4954 31.6648 30.7196C31.6648 30.7196 31.4406 30.7196 31.4406 30.9438L31.2163 31.1681C31.4405 31.1681 31.6648 31.3923 31.6648 31.3923C31.6648 31.3923 31.6648 31.3923 31.6648 31.6165C31.6648 31.6165 31.6648 31.6165 31.889 31.3923C32.1133 30.9438 33.0101 30.2712 33.2344 30.2712C33.2344 30.2712 33.2344 30.9438 33.2344 31.6165V31.8408C33.2344 32.2892 33.2344 32.2892 33.2344 32.2892H33.4586C33.6828 32.2892 33.9071 32.2892 33.9071 32.2892V32.065V31.8408C33.9071 31.6165 33.9071 30.4954 33.9071 30.4954C33.9071 30.4954 34.804 30.7196 34.804 30.9438H35.0282L35.2525 30.7196L35.4767 30.4954H35.7009C35.7009 30.4954 35.4767 30.2712 35.2525 30.2712C34.804 30.2712 33.9071 30.0469 33.9071 30.0469L36.3736 27.8046L33.9071 30.0469C33.9071 30.0469 34.804 30.2712 35.2525 30.2712C35.4767 30.2712 35.9251 30.2711 35.9251 30.4954H35.7009C35.7009 30.4954 35.4767 30.4954 35.4767 30.7196C35.4767 30.9438 35.2525 30.9438 35.2525 30.9438H35.0282C34.804 30.7196 34.1313 30.4954 34.1313 30.4954C34.1313 30.7196 34.1313 31.6165 34.1313 31.8408V32.065C34.1313 32.2892 34.3556 32.2892 34.1313 32.5135H33.9071C33.9071 32.5135 33.6828 32.5135 33.4586 32.5135L33.2344 32.2892Z" fill="#000"/><path d="M38.1681 34.5309L37.0469 33.1855C35.7015 33.8582 34.8046 33.634 34.3561 32.5128C36.15 32.7371 37.0469 31.1675 37.0469 27.3556L35.7015 29.5979V27.5798L33.9077 27.804L38.3923 22.871L38.1681 34.5309Z" fill="#000"/></svg>