<svg width="16" height="16" viewBox="0 0 16 16" fill="none" xmlns="http://www.w3.org/2000/svg"><path d="M8 11.9375C9.7397 11.9375 11.15 10.5272 11.15 8.7875H4.85C4.85 10.5272 6.2603 11.9375 8 11.9375Z" fill="#6A7BFF"/><path d="M6.425 6.425C6.425 6.85992 6.07242 7.2125 5.6375 7.2125C5.20258 7.2125 4.85 6.85992 4.85 6.425C4.85 5.99008 5.20258 5.6375 5.6375 5.6375C6.07242 5.6375 6.425 5.99008 6.425 6.425Z" fill="#6A7BFF"/><path d="M10.3625 7.2125C10.7974 7.2125 11.15 6.85992 11.15 6.425C11.15 5.99008 10.7974 5.6375 10.3625 5.6375C9.92758 5.6375 9.575 5.99008 9.575 6.425C9.575 6.85992 9.92758 7.2125 10.3625 7.2125Z" fill="#6A7BFF"/><path fill-rule="evenodd" clip-rule="evenodd" d="M15.875 8C15.875 12.3492 12.3492 15.875 8 15.875C3.65076 15.875 0.125 12.3492 0.125 8C0.125 3.65076 3.65076 0.125 8 0.125C12.3492 0.125 15.875 3.65076 15.875 8ZM14.3 8C14.3 11.4794 11.4794 14.3 8 14.3C4.52061 14.3 1.7 11.4794 1.7 8C1.7 4.52061 4.52061 1.7 8 1.7C11.4794 1.7 14.3 4.52061 14.3 8Z" fill="#6A7BFF"/></svg>