<svg width="18" height="18" viewBox="0 0 18 18" fill="none" xmlns="http://www.w3.org/2000/svg"><path d="M14.1774 7.37375C14.8143 6.94384 15.234 6.2155 15.234 5.39097C15.234 4.07262 14.1615 3.00006 12.8431 3.00006C11.5248 3.00006 10.4522 4.07262 10.4522 5.39097C10.4522 6.21512 10.8715 6.94319 11.508 7.37319C11.0443 7.53016 10.6102 7.76919 10.2247 8.08259C9.89862 7.76894 9.46094 7.58828 9.00003 7.58828C8.53916 7.58828 8.10147 7.769 7.77553 8.08259C7.38997 7.76919 6.95578 7.53016 6.49203 7.37316C7.12853 6.94316 7.54781 6.21509 7.54781 5.39091C7.54781 4.07256 6.47525 3 5.15691 3C3.83872 3 2.76631 4.07256 2.76631 5.39091C2.76631 6.21544 3.18591 6.94375 3.82278 7.37369C2.18566 7.92997 1.00397 9.48072 1.00044 11.3028C1.00034 11.3056 1 11.3082 1 11.311C1 11.7926 1.27369 12.5035 2.57763 13.1547C3.50675 13.6188 4.78356 13.9676 6.27006 14.1635C7.142 14.2785 8.0605 14.3368 9.00003 14.3368C9.93978 14.3368 10.8584 14.2785 11.7303 14.1635C13.2167 13.9676 14.4934 13.6188 15.4225 13.1547C16.7263 12.5034 17 11.7926 17 11.311C17 9.48538 15.817 7.93087 14.1774 7.37375ZM11.0797 5.39097C11.0797 4.41859 11.8708 3.62753 12.8431 3.62753C13.8155 3.62753 14.6066 4.41862 14.6066 5.39097C14.6066 6.36319 13.8155 7.15409 12.8431 7.15409C11.8708 7.15409 11.0797 6.36319 11.0797 5.39097ZM8.06394 8.70588C8.27709 8.399 8.62697 8.21575 9 8.21575C9.37322 8.21575 9.72322 8.399 9.93634 8.70588C9.93638 8.70597 9.93644 8.70603 9.93647 8.70609C10.0695 8.89731 10.1397 9.12184 10.1397 9.3555C10.1397 9.98397 9.62844 10.4953 8.99997 10.4953C8.37166 10.4953 7.86053 9.98394 7.86053 9.35547C7.86053 9.12147 7.93075 8.897 8.06394 8.70588ZM3.39372 5.39097C3.39372 4.41859 4.18466 3.62753 5.15684 3.62753C6.12922 3.62753 6.92028 4.41862 6.92028 5.39097C6.92028 6.36319 6.12919 7.15409 5.15684 7.15409C4.18466 7.15409 3.39372 6.36319 3.39372 5.39097ZM5.99747 13.491C4.73231 13.2983 3.65231 12.9901 2.85803 12.5934C2.06678 12.1983 1.63016 11.7443 1.62762 11.3147C1.62762 11.3135 1.62781 11.3123 1.62781 11.311C1.62778 9.36487 3.21094 7.78156 5.15688 7.78156C5.98475 7.78156 6.77459 8.06756 7.40666 8.59141C7.29269 8.82825 7.23313 9.08791 7.23313 9.35553C7.23313 9.90169 7.48222 10.3907 7.87266 10.7152C6.77606 11.161 6.00031 12.2369 5.99747 13.491ZM11.3755 13.575C10.6124 13.664 9.81487 13.7094 9 13.7094C8.18531 13.7094 7.38788 13.664 6.62478 13.575V13.4979C6.62478 12.1882 7.69028 11.1227 9 11.1227C10.3099 11.1227 11.3755 12.1882 11.3755 13.4979V13.575ZM15.1421 12.5934C14.3478 12.9901 13.268 13.2983 12.0029 13.491C12.0001 12.2368 11.2243 11.161 10.1276 10.7151C10.5181 10.3907 10.7673 9.90166 10.7673 9.35547C10.7673 9.08816 10.7077 8.82844 10.5936 8.59138C11.2254 8.0675 12.0152 7.7815 12.8432 7.7815C14.7893 7.78153 16.3726 9.36484 16.3726 11.3109C16.3726 11.7416 15.9356 12.1971 15.1421 12.5934Z" fill="#6A7BFF" stroke="#6A7BFF" stroke-width=".5"/></svg>