<svg width="32" height="33" viewBox="0 0 32 33" fill="none" xmlns="http://www.w3.org/2000/svg"><path d="M19.934 6.28125H12.6541C12.2521 6.28125 11.9261 6.60718 11.9261 7.00924C11.9261 7.41131 12.2521 7.73723 12.6541 7.73723H19.934C20.336 7.73723 20.6619 7.41131 20.6619 7.00924C20.6619 6.60718 20.336 6.28125 19.934 6.28125Z" fill="#6A7BFF" stroke="#6A7BFF" stroke-width=".3"/><path d="M10.6168 22.2958C10.236 22.2958 9.8712 22.6306 9.8888 23.0238C9.90644 23.4182 10.2087 23.7518 10.6168 23.7518C10.9976 23.7518 11.3624 23.4169 11.3448 23.0238C11.3271 22.6293 11.0249 22.2958 10.6168 22.2958Z" fill="#6A7BFF" stroke="#6A7BFF" stroke-width=".3"/><path d="M22.4094 22.3936C22.0286 22.3936 21.6638 22.7284 21.6814 23.1215C21.699 23.516 22.0013 23.8495 22.4094 23.8495C22.7902 23.8495 23.155 23.5147 23.1374 23.1215C23.1197 22.7271 22.8175 22.3936 22.4094 22.3936Z" fill="#6A7BFF" stroke="#6A7BFF" stroke-width=".3"/><path d="M27.8618 9.99386C27.4598 9.99386 27.1338 10.3198 27.1338 10.7218V11.4741H26.1995V5.91712C26.1995 4.86002 25.3394 4 24.2823 4H8.30729C7.25018 4 6.39017 4.86002 6.39017 5.91712V11.4741H5.4558V10.7218C5.4558 10.3198 5.12987 9.99386 4.72781 9.99386C4.32579 9.99386 3.99982 10.3198 3.99982 10.7218V13.6823C3.99982 14.0844 4.32574 14.4103 4.72781 14.4103C5.12987 14.4103 5.4558 14.0844 5.4558 13.6823V12.93H6.39017V20.2442V24.6505C6.39017 25.7009 7.23935 26.5562 8.28713 26.5671V28.0234C8.28713 28.4255 8.61306 28.7514 9.01512 28.7514H12.8006C13.2027 28.7514 13.5286 28.4255 13.5286 28.0234V26.5676H19.0613V28.0234C19.0613 28.4255 19.3872 28.7514 19.7893 28.7514H23.5748C23.9768 28.7514 24.3028 28.4255 24.3028 28.0234V26.5671C25.3505 26.556 26.1995 25.7008 26.1995 24.6505V20.2442V12.9301H27.1338V13.6824C27.1338 14.0844 27.4598 14.4103 27.8618 14.4103C28.2639 14.4103 28.5898 14.0844 28.5898 13.6824V10.7219C28.5898 10.3198 28.2639 9.99386 27.8618 9.99386ZM7.84615 10.0991H15.567V19.5162H7.84615V10.0991ZM12.0726 27.2954H9.74311V26.5676H12.0726V27.2954ZM22.8468 27.2954H20.5173V26.5676H22.8468V27.2954ZM24.7435 24.6506C24.7435 24.9049 24.5366 25.1117 24.2823 25.1117H8.30729C8.05301 25.1117 7.84615 24.9048 7.84615 24.6506V20.9722H24.7435V24.6506ZM17.0229 19.5162V10.0991H24.7435V19.5162H17.0229ZM24.7435 8.64307H7.84615V5.91712C7.84615 5.66284 8.05301 5.45598 8.30729 5.45598H24.2823C24.5366 5.45598 24.7435 5.66289 24.7435 5.91712V8.64307Z" fill="#6A7BFF" stroke="#6A7BFF" stroke-width=".3"/></svg>