<svg width="32" height="33" viewBox="0 0 32 33" fill="none" xmlns="http://www.w3.org/2000/svg"><path d="M22.8148 6.5703C21.8414 6.17464 20.6923 5.8798 19.4437 5.69823L20.4696 3.71467H22.0759L22.6821 4.32082C23.0168 4.65561 23.5597 4.65561 23.8945 4.32082C24.2292 3.98602 24.2292 3.44325 23.8945 3.10846L23.0372 2.25119C22.8765 2.09048 22.6584 2.00012 22.431 2.00012H10.2578C9.98789 2.00012 9.73385 2.12717 9.57194 2.34303L8.88612 3.25746C8.60202 3.6362 8.67883 4.17354 9.05758 4.45764C9.43466 4.74048 9.97246 4.66664 10.2578 4.28618L10.6864 3.71467H12.3906L13.4166 5.69828C12.1679 5.87985 11.0188 6.1747 10.0454 6.57036C8.08166 7.36854 7.00012 8.52522 7.00012 9.82725V23.489C7.00012 24.9071 8.15384 26.0608 9.57194 26.0608H10.1012L8.75776 30.1358C8.60951 30.5855 8.85389 31.0701 9.30356 31.2184C9.75231 31.3662 10.2375 31.1233 10.3861 30.6726L10.7761 29.4898H22.0842L22.4741 30.6726C22.6228 31.1234 23.1082 31.3662 23.5567 31.2184C24.0064 31.0701 24.2507 30.5854 24.1025 30.1358L22.759 26.0607H23.2883C24.7064 26.0607 25.8601 24.907 25.8601 23.4889V9.82725C25.8601 8.52522 24.7786 7.36854 22.8148 6.5703ZM18.5393 3.71467L17.6062 5.5186C16.804 5.47568 16.0578 5.47562 15.254 5.5186L14.3209 3.71467H18.5393ZM23.611 8.97255H9.24921C12.0488 6.61854 20.8014 6.61008 23.611 8.97255ZM8.71467 10.6871H15.5728V16.6308H13.9769L8.71467 15.1277V10.6871ZM9.57194 24.3462C9.09924 24.3462 8.71467 23.9616 8.71467 23.4889V21.5163L11.1872 22.6316L11.6158 24.3462C11.6228 24.3462 9.58691 24.3462 9.57194 24.3462ZM11.3413 27.7753L11.9065 26.0607C11.9166 26.0607 21.0398 26.0607 20.9537 26.0607L21.5189 27.7753H11.3413ZM24.1456 23.4889C24.1456 23.9616 23.761 24.3462 23.2883 24.3462C22.5057 24.3462 21.9689 24.3462 21.2434 24.3462L21.6706 22.6316L24.1456 21.5163V23.4889ZM24.1456 19.8018L21.0008 20.9172C20.6072 20.9172 20.2641 21.1852 20.169 21.5671L19.4765 24.3462H13.3831L12.6882 21.5665C12.5928 21.1849 12.2499 20.9171 11.8565 20.9171L8.71467 19.8018V16.9108C13.8604 18.3689 13.6402 18.3453 13.8569 18.3453C19.2924 18.3339 19.0193 18.3742 19.2361 18.3123L24.1456 16.9093V19.8018ZM24.1456 15.1261L18.8804 16.6308H17.2874V10.6871H24.1456V15.1261Z" fill="#6A7BFF"/></svg>