<svg width="18" height="18" viewBox="0 0 18 18" fill="none" xmlns="http://www.w3.org/2000/svg"><g clip-path="url(#clip0)" fill="#6A7BFF"><path d="M13.0828 13.5655L11.9378 10.6349L13.4925 7.94217C14.1375 6.82495 14.194 5.48917 13.6559 4.07931C13.2638 3.05204 12.6916 2.34211 12.6674 2.31241C12.5851 2.21114 12.4683 2.14373 12.3395 2.12306C12.3017 2.11698 11.4007 1.97638 10.3151 2.15046C8.82497 2.38935 7.69646 3.10617 7.05142 4.22342L5.49678 6.91612L2.38634 7.38985C2.22678 7.41412 2.08694 7.50964 2.00624 7.64941L0.855202 9.64308C0.708506 9.89716 0.795568 10.2221 1.04965 10.3688L3.65675 11.874L2.85988 13.2542C2.71318 13.5083 2.80024 13.8332 3.05433 13.9799L7.04165 16.282C7.29574 16.4287 7.62066 16.3416 7.76735 16.0875L8.56423 14.7073L11.1713 16.2125C11.4254 16.3592 11.7503 16.2722 11.897 16.0181L13.0481 14.0244C13.1288 13.8846 13.1416 13.7158 13.0828 13.5655ZM7.97157 4.75467C8.96474 3.03445 11.2673 3.08965 11.9664 3.14959C12.3702 3.72477 13.57 5.6829 12.5723 7.41092L8.94212 13.6986L4.34136 11.0424L7.97157 4.75467ZM2.79874 8.40178L4.81648 8.09444L3.42121 10.5111L2.04098 9.71425L2.79874 8.40178ZM7.11282 15.0962L4.04565 13.3254L4.5769 12.4052L7.64407 14.1761L7.11282 15.0962ZM11.2425 15.0268L9.86227 14.2299L11.2575 11.8132L12.0002 13.7143L11.2425 15.0268Z"/><path d="M8.32405 9.45668C9.0851 9.89608 10.0618 9.63439 10.5011 8.87333C10.9405 8.11227 10.6789 7.13564 9.9178 6.69623C9.15671 6.25681 8.18009 6.51852 7.74069 7.27958C7.3013 8.04064 7.56296 9.01727 8.32405 9.45668ZM9.38655 7.61638C9.64023 7.76285 9.72746 8.0884 9.581 8.34208C9.43453 8.59577 9.10901 8.68302 8.8553 8.53653C8.60158 8.39005 8.51438 8.06452 8.66084 7.81083C8.80731 7.55715 9.13283 7.4699 9.38655 7.61638Z"/></g><defs><clipPath id="clip0"><path fill="#fff" d="M0 0H18V18H0z"/></clipPath></defs></svg>