<svg width="18" height="18" viewBox="0 0 18 18" fill="none" xmlns="http://www.w3.org/2000/svg"><path d="M13.313 15.2747C13.4456 15.1785 13.5119 15.0154 13.4842 14.854L13.313 15.2747ZM13.313 15.2747C13.1806 15.371 13.0049 15.3836 12.86 15.3074L13.313 15.2747ZM13.0927 14.8649L13.0926 14.8649L13.0927 14.8649ZM12.3508 11.202L12.9675 14.7991L9.73654 13.1008C9.73653 13.1008 9.73653 13.1008 9.73653 13.1008C9.27531 12.8584 8.72432 12.8584 8.26306 13.1009C8.26305 13.1009 8.26304 13.1009 8.26303 13.1009L5.03237 14.7991L5.64934 11.2022C5.64934 11.2022 5.64934 11.2022 5.64935 11.2022C5.73747 10.6885 5.56717 10.1645 5.19403 9.80067L5.19399 9.80063L2.58012 7.25264L6.19235 6.72755L6.19237 6.72754C6.70802 6.65258 7.15382 6.3287 7.38446 5.86139L7.38447 5.86138L8.99981 2.58829L10.6155 5.86144L10.6155 5.86145C10.8461 6.32862 11.2918 6.65257 11.8075 6.72749C11.8075 6.72749 11.8076 6.7275 11.8076 6.7275L15.4199 7.25261L12.8062 9.80071L12.8062 9.80072C12.4331 10.1645 12.2628 10.6885 12.3508 11.202L12.3508 11.202ZM15.521 7.15401L15.5209 7.15413C15.521 7.15409 15.521 7.15404 15.5211 7.15399L15.521 7.15401Z" stroke="#fff"/></svg>