<svg width="18" height="18" viewBox="0 0 18 18" fill="none" xmlns="http://www.w3.org/2000/svg">
<path d="M10.0072 15.3635L8.05246 15.8543V14.468C6.8395 14.3467 5.82201 14.0153 5 13.4739V11.3735C5.44108 11.7282 6.0225 12.0363 6.74426 12.2977C7.47605 12.5497 8.19782 12.6757 8.90956 12.6757C9.50101 12.6757 9.98719 12.5777 10.3681 12.3817C10.7491 12.1763 10.9395 11.8962 10.9395 11.5415C10.9395 11.1588 10.7591 10.8881 10.3982 10.7294C10.2478 10.6454 10.0473 10.5613 9.79673 10.4773L9.43585 10.3653L8.59379 10.1273L7.81187 9.88922C7.70161 9.86122 7.46603 9.78187 7.10515 9.65118C6.79439 9.53916 6.56884 9.44115 6.42849 9.35713C5.90722 9.02107 5.57641 8.73635 5.43607 8.50298C5.19548 8.0549 5.07518 7.59748 5.07518 7.13073C5.07518 6.38393 5.33582 5.77716 5.8571 5.31041C6.37837 4.83433 7.11016 4.53094 8.05246 4.40025V3.4908L10.0072 3V4.38625C10.8293 4.4796 11.6563 4.73164 12.4883 5.14238V7.10273C11.4157 6.48662 10.2779 6.17857 9.07496 6.17857C7.88205 6.17857 7.28559 6.50062 7.28559 7.14474C7.28559 7.42479 7.47104 7.64883 7.84195 7.81686C8.06249 7.92888 8.34819 8.02689 8.69904 8.11091C9.1702 8.23226 9.55113 8.33495 9.84184 8.41896C10.714 8.67101 11.4758 9.01174 12.1274 9.44115C12.8291 9.89856 13.18 10.58 13.18 11.4855C13.18 12.2603 12.8893 12.9138 12.3079 13.4459C11.7264 13.9686 10.9596 14.3 10.0072 14.44V15.3635Z" stroke="white" stroke-width="0.75"/>
</svg>
