<svg width="76" height="45" viewBox="0 0 76 45" fill="none" xmlns="http://www.w3.org/2000/svg">
<path d="M75.5232 40.8093H0.182129V44.1728H75.5232V40.8093Z" fill="#CB001C"/>
<path d="M75.5232 37.4447H0.182129V40.8081H75.5232V37.4447Z" fill="white"/>
<path d="M75.5232 34.082H0.182129V37.4455H75.5232V34.082Z" fill="#CB001C"/>
<path d="M75.5232 30.7194H0.182129V34.0828H75.5232V30.7194Z" fill="white"/>
<path d="M75.5232 27.3547H0.182129V30.7182H75.5232V27.3547Z" fill="#CB001C"/>
<path d="M75.5232 23.9921H0.182129V27.3555H75.5232V23.9921Z" fill="white"/>
<path d="M75.5232 20.6275H0.182129V23.9909H75.5232V20.6275Z" fill="#CB001C"/>
<path d="M75.5232 17.2648H0.182129V20.6283H75.5232V17.2648Z" fill="white"/>
<path d="M75.5232 13.9021H0.182129V17.2655H75.5232V13.9021Z" fill="#CB001C"/>
<path d="M75.5232 10.5375H0.182129V13.901H75.5232V10.5375Z" fill="white"/>
<path d="M75.5232 7.17487H0.182129V10.5383H75.5232V7.17487Z" fill="#CB001C"/>
<path d="M75.5232 3.58752H0.182129V6.95097H75.5232V3.58752Z" fill="white"/>
<path d="M75.5227 0.224609H0.181641V3.58805H75.5227V0.224609Z" fill="#CB001C"/>
<path d="M34.4887 0.224609H0.181641V23.7687H34.4887V0.224609Z" fill="#2A3560"/>
<path d="M3.09698 2.91345L3.54546 3.81037H4.4423L3.76964 4.25883L3.99381 5.15575L3.09698 4.70729L2.42432 5.15575L2.64849 4.25883L1.97583 3.81037H2.87267L3.09698 2.91345Z" fill="white"/>
<path d="M3.09698 6.9502L3.54546 7.84712H4.4423L3.76964 8.29558L3.99381 9.19249L3.09698 8.74404L2.42432 9.19249L2.64849 8.29558L1.97583 7.84712H2.87267L3.09698 6.9502Z" fill="white"/>
<path d="M3.09698 10.7603L3.54546 11.6572H4.4423L3.76964 12.3299L3.99381 13.2268L3.09698 12.5541L2.42432 13.2268L2.64849 12.3299L1.97583 11.6572H2.87267L3.09698 10.7603Z" fill="white"/>
<path d="M3.09698 14.799L3.54546 15.6959H4.4423L3.76964 16.1443L3.99381 17.0412L3.09698 16.5928L2.42432 17.0412L2.64849 16.1443L1.97583 15.6959H2.87267L3.09698 14.799Z" fill="white"/>
<path d="M3.09698 18.6091L3.54546 19.5061H4.4423L3.76964 20.1787L3.99381 21.0757L3.09698 20.403L2.42432 21.0757L2.64849 20.1787L1.97583 19.5061H2.87267L3.09698 18.6091Z" fill="white"/>
<path d="M6.01256 4.93182L6.23673 5.82874H7.13371L6.46105 6.50143L6.68522 7.39835L6.01256 6.72566L5.11559 7.39835L5.56407 6.50143L4.66724 5.82874H5.56407L6.01256 4.93182Z" fill="white"/>
<path d="M6.01256 8.97046L6.23673 9.86738H7.13371L6.46105 10.3158L6.68522 11.2128L6.01256 10.7643L5.11559 11.2128L5.56407 10.3158L4.66724 9.86738H5.56407L6.01256 8.97046Z" fill="white"/>
<path d="M6.01256 12.7806L6.23673 13.6775H7.13371L6.46105 14.3502L6.68522 15.2471L6.01256 14.5744L5.11559 15.2471L5.56407 14.3502L4.66724 13.6775H5.56407L6.01256 12.7806Z" fill="white"/>
<path d="M6.01256 16.8173L6.23673 17.7142H7.13371L6.46105 18.3869L6.68522 19.0596L6.01256 18.6112L5.11559 19.0596L5.56407 18.3869L4.66724 17.7142H5.56407L6.01256 16.8173Z" fill="white"/>
<path d="M8.70269 2.91345L8.92687 3.81037H10.048L9.15118 4.25883L9.37535 5.15575L8.70269 4.70729L8.03003 5.15575L8.2542 4.25883L7.58154 3.81037H8.47838L8.70269 2.91345Z" fill="white"/>
<path d="M8.70269 6.9502L8.92687 7.84712H10.048L9.15118 8.29558L9.37535 9.19249L8.70269 8.74404L8.03003 9.19249L8.2542 8.29558L7.58154 7.84712H8.47838L8.70269 6.9502Z" fill="white"/>
<path d="M8.70269 10.7603L8.92687 11.6572H10.048L9.15118 12.3299L9.37535 13.2268L8.70269 12.5541L8.03003 13.2268L8.2542 12.3299L7.58154 11.6572H8.47838L8.70269 10.7603Z" fill="white"/>
<path d="M8.70269 14.799L8.92687 15.6959H10.048L9.15118 16.1443L9.37535 17.0412L8.70269 16.5928L8.03003 17.0412L8.2542 16.1443L7.58154 15.6959H8.47838L8.70269 14.799Z" fill="white"/>
<path d="M8.70269 18.6091L8.92687 19.5061H10.048L9.15118 20.1787L9.37535 21.0757L8.70269 20.403L8.03003 21.0757L8.2542 20.1787L7.58154 19.5061H8.47838L8.70269 18.6091Z" fill="white"/>
<path d="M11.3941 4.93182L11.8424 5.82874H12.7394L11.8424 6.50143L12.2909 7.39835L11.3941 6.72566L10.7213 7.39835L10.9456 6.50143L10.2729 5.82874H11.1698L11.3941 4.93182Z" fill="white"/>
<path d="M11.3941 8.97046L11.8424 9.86738H12.7394L11.8424 10.3158L12.2909 11.2128L11.3941 10.7643L10.7213 11.2128L10.9456 10.3158L10.2729 9.86738H11.1698L11.3941 8.97046Z" fill="white"/>
<path d="M11.3941 12.7806L11.8424 13.6775H12.7394L11.8424 14.3502L12.2909 15.2471L11.3941 14.5744L10.7213 15.2471L10.9456 14.3502L10.2729 13.6775H11.1698L11.3941 12.7806Z" fill="white"/>
<path d="M11.3941 16.8173L11.8424 17.7142H12.7394L11.8424 18.3869L12.2909 19.0596L11.3941 18.6112L10.7213 19.0596L10.9456 18.3869L10.2729 17.7142H11.1698L11.3941 16.8173Z" fill="white"/>
<path d="M14.3091 2.91345L14.5333 3.81037H15.4302L14.7576 4.25883L14.9817 5.15575L14.3091 4.70729L13.4121 5.15575L13.8606 4.25883L12.9636 3.81037H13.8606L14.3091 2.91345Z" fill="white"/>
<path d="M14.3091 6.9502L14.5333 7.84712H15.4302L14.7576 8.29558L14.9817 9.19249L14.3091 8.74404L13.4121 9.19249L13.8606 8.29558L12.9636 7.84712H13.8606L14.3091 6.9502Z" fill="white"/>
<path d="M14.3091 10.7603L14.5333 11.6572H15.4302L14.7576 12.3299L14.9817 13.2268L14.3091 12.5541L13.4121 13.2268L13.8606 12.3299L12.9636 11.6572H13.8606L14.3091 10.7603Z" fill="white"/>
<path d="M14.3091 14.799L14.5333 15.6959H15.4302L14.7576 16.1443L14.9817 17.0412L14.3091 16.5928L13.4121 17.0412L13.8606 16.1443L12.9636 15.6959H13.8606L14.3091 14.799Z" fill="white"/>
<path d="M14.3091 18.6091L14.5333 19.5061H15.4302L14.7576 20.1787L14.9817 21.0757L14.3091 20.403L13.4121 21.0757L13.8606 20.1787L12.9636 19.5061H13.8606L14.3091 18.6091Z" fill="white"/>
<path d="M16.9998 4.93182L17.224 5.82874H18.121L17.4482 6.50143L17.6725 7.39835L16.9998 6.72566L16.327 7.39835L16.5513 6.50143L15.8787 5.82874H16.7755L16.9998 4.93182Z" fill="white"/>
<path d="M16.9998 8.97046L17.224 9.86738H18.121L17.4482 10.3158L17.6725 11.2128L16.9998 10.7643L16.327 11.2128L16.5513 10.3158L15.8787 9.86738H16.7755L16.9998 8.97046Z" fill="white"/>
<path d="M16.9998 12.7806L17.224 13.6775H18.121L17.4482 14.3502L17.6725 15.2471L16.9998 14.5744L16.327 15.2471L16.5513 14.3502L15.8787 13.6775H16.7755L16.9998 12.7806Z" fill="white"/>
<path d="M16.9998 16.8173L17.224 17.7142H18.121L17.4482 18.3869L17.6725 19.0596L16.9998 18.6112L16.327 19.0596L16.5513 18.3869L15.8787 17.7142H16.7755L16.9998 16.8173Z" fill="white"/>
<path d="M19.6905 2.91345L20.139 3.81037H21.0359L20.139 4.25883L20.5875 5.15575L19.6905 4.70729L19.0178 5.15575L19.2421 4.25883L18.5693 3.81037H19.4663L19.6905 2.91345Z" fill="white"/>
<path d="M19.6905 6.9502L20.139 7.84712H21.0359L20.139 8.29558L20.5875 9.19249L19.6905 8.74404L19.0178 9.19249L19.2421 8.29558L18.5693 7.84712H19.4663L19.6905 6.9502Z" fill="white"/>
<path d="M19.6905 10.7603L20.139 11.6572H21.0359L20.139 12.3299L20.5875 13.2268L19.6905 12.5541L19.0178 13.2268L19.2421 12.3299L18.5693 11.6572H19.4663L19.6905 10.7603Z" fill="white"/>
<path d="M19.6905 14.799L20.139 15.6959H21.0359L20.139 16.1443L20.5875 17.0412L19.6905 16.5928L19.0178 17.0412L19.2421 16.1443L18.5693 15.6959H19.4663L19.6905 14.799Z" fill="white"/>
<path d="M19.6905 18.6091L20.139 19.5061H21.0359L20.139 20.1787L20.5875 21.0757L19.6905 20.403L19.0178 21.0757L19.2421 20.1787L18.5693 19.5061H19.4663L19.6905 18.6091Z" fill="white"/>
<path d="M22.6062 4.93182L22.8304 5.82874H23.7273L23.0546 6.50143L23.2789 7.39835L22.6062 6.72566L21.7092 7.39835L22.1577 6.50143L21.2607 5.82874H22.1577L22.6062 4.93182Z" fill="white"/>
<path d="M22.6062 8.97046L22.8304 9.86738H23.7273L23.0546 10.3158L23.2789 11.2128L22.6062 10.7643L21.7092 11.2128L22.1577 10.3158L21.2607 9.86738H22.1577L22.6062 8.97046Z" fill="white"/>
<path d="M22.6062 12.7806L22.8304 13.6775H23.7273L23.0546 14.3502L23.2789 15.2471L22.6062 14.5744L21.7092 15.2471L22.1577 14.3502L21.2607 13.6775H22.1577L22.6062 12.7806Z" fill="white"/>
<path d="M22.6062 16.8173L22.8304 17.7142H23.7273L23.0546 18.3869L23.2789 19.0596L22.6062 18.6112L21.7092 19.0596L22.1577 18.3869L21.2607 17.7142H22.1577L22.6062 16.8173Z" fill="white"/>
<path d="M25.2962 2.91345L25.5205 3.81037H26.6417L25.7447 4.25883L25.969 5.15575L25.2962 4.70729L24.6235 5.15575L24.8478 4.25883L24.175 3.81037H25.072L25.2962 2.91345Z" fill="white"/>
<path d="M25.2962 6.9502L25.5205 7.84712H26.6417L25.7447 8.29558L25.969 9.19249L25.2962 8.74404L24.6235 9.19249L24.8478 8.29558L24.175 7.84712H25.072L25.2962 6.9502Z" fill="white"/>
<path d="M25.2962 10.7603L25.5205 11.6572H26.6417L25.7447 12.3299L25.969 13.2268L25.2962 12.5541L24.6235 13.2268L24.8478 12.3299L24.175 11.6572H25.072L25.2962 10.7603Z" fill="white"/>
<path d="M25.2962 14.799L25.5205 15.6959H26.6417L25.7447 16.1443L25.969 17.0412L25.2962 16.5928L24.6235 17.0412L24.8478 16.1443L24.175 15.6959H25.072L25.2962 14.799Z" fill="white"/>
<path d="M25.2962 18.6091L25.5205 19.5061H26.6417L25.7447 20.1787L25.969 21.0757L25.2962 20.403L24.6235 21.0757L24.8478 20.1787L24.175 19.5061H25.072L25.2962 18.6091Z" fill="white"/>
<path d="M27.9876 4.93182L28.4361 5.82874H29.3331L28.4361 6.50143L28.8846 7.39835L27.9876 6.72566L27.3149 7.39835L27.5391 6.50143L26.8665 5.82874H27.7634L27.9876 4.93182Z" fill="white"/>
<path d="M27.9876 8.97046L28.4361 9.86738H29.3331L28.4361 10.3158L28.8846 11.2128L27.9876 10.7643L27.3149 11.2128L27.5391 10.3158L26.8665 9.86738H27.7634L27.9876 8.97046Z" fill="white"/>
<path d="M27.9876 12.7806L28.4361 13.6775H29.3331L28.4361 14.3502L28.8846 15.2471L27.9876 14.5744L27.3149 15.2471L27.5391 14.3502L26.8665 13.6775H27.7634L27.9876 12.7806Z" fill="white"/>
<path d="M27.9876 16.8173L28.4361 17.7142H29.3331L28.4361 18.3869L28.8846 19.0596L27.9876 18.6112L27.3149 19.0596L27.5391 18.3869L26.8665 17.7142H27.7634L27.9876 16.8173Z" fill="white"/>
<path d="M30.9005 2.91345L31.1248 3.81037H32.0216L31.349 4.25883L31.5733 5.15575L30.9005 4.70729L30.0037 5.15575L30.4521 4.25883L29.5552 3.81037H30.4521L30.9005 2.91345Z" fill="white"/>
<path d="M30.9005 6.9502L31.1248 7.84712H32.0216L31.349 8.29558L31.5733 9.19249L30.9005 8.74404L30.0037 9.19249L30.4521 8.29558L29.5552 7.84712H30.4521L30.9005 6.9502Z" fill="white"/>
<path d="M30.9005 10.7603L31.1248 11.6572H32.0216L31.349 12.3299L31.5733 13.2268L30.9005 12.5541L30.0037 13.2268L30.4521 12.3299L29.5552 11.6572H30.4521L30.9005 10.7603Z" fill="white"/>
<path d="M30.9005 14.799L31.1248 15.6959H32.0216L31.349 16.1443L31.5733 17.0412L30.9005 16.5928L30.0037 17.0412L30.4521 16.1443L29.5552 15.6959H30.4521L30.9005 14.799Z" fill="white"/>
<path d="M30.9005 18.6091L31.1248 19.5061H32.0216L31.349 20.1787L31.5733 21.0757L30.9005 20.403L30.0037 21.0757L30.4521 20.1787L29.5552 19.5061H30.4521L30.9005 18.6091Z" fill="white"/>
</svg>
