<svg width="76" height="45" viewBox="0 0 76 45" fill="none" xmlns="http://www.w3.org/2000/svg">
<path d="M18.2373 0.423828H0.523193V44.3728H18.2373V0.423828Z" fill="#EA0020"/>
<path d="M75.865 0.424011H58.1509V44.373H75.865V0.424011Z" fill="#EA0020"/>
<path d="M58.1514 0.424011H18.2385V44.373H58.1514V0.424011Z" fill="white"/>
<path d="M38.1935 6.25256L35.5028 11.4099C35.2786 11.8583 34.6059 11.8583 34.1574 11.6341L32.3636 10.5129L33.709 18.361C33.9332 19.7063 33.0363 19.7063 32.5878 19.2579L29.2244 15.446L28.7759 17.464C28.7759 17.6883 28.5517 17.9125 28.1032 17.9125L23.8429 17.0156L24.964 21.2759C25.1882 22.1729 25.4125 22.6213 24.7398 22.8456L23.1702 23.5182L30.3455 29.5724C30.5697 29.7967 30.794 30.2451 30.5697 30.6936L29.8971 32.9359C32.3636 32.7116 34.6059 32.2632 37.0724 32.039C37.2966 32.039 37.7451 32.2632 37.7451 32.4874L37.5209 40.3354H38.642L38.4178 32.4874C38.4178 32.2632 38.642 32.039 38.8662 32.039C41.3328 32.2632 43.5751 32.7116 46.0416 32.9359L45.3689 30.6936C45.3689 30.2451 45.3689 30.0209 45.5931 29.5724L52.7685 23.5182L51.1989 22.8456C50.5262 22.6213 50.7504 22.1729 50.9746 21.2759L52.0958 17.0156L47.8354 17.9125C47.387 17.9125 47.1627 17.6883 47.1627 17.464L46.7143 15.446L43.3508 19.2579C42.9024 19.9306 42.0054 19.9306 42.2297 18.361L43.5751 10.5129L41.7812 11.6341C41.3328 11.8583 40.6601 12.0825 40.4358 11.4099L38.1935 6.25256Z" fill="#EA0020"/>
</svg>
