<svg width="76" height="45" viewBox="0 0 76 45" fill="none" xmlns="http://www.w3.org/2000/svg">
<path d="M37.8781 0.423828V1.99344V2.4419V2.66612L29.5816 6.70226H37.8781V8.04764V9.84147V11.8595V12.9807H29.5816L37.8781 17.241V17.9137V19.2591V19.4833H35.1873H34.2904H33.842L22.182 13.6534V19.4833H20.8366H19.0428H17.0247H15.9036V13.6534L4.24366 19.4833H2.67406H0.20752V44.3728H75.5487V0.423828H37.8781Z" fill="#1A237B"/>
<path d="M0.207031 12.9798V17.2402L8.50352 12.9798H0.207031Z" fill="#1A237B"/>
<path d="M22.1807 0.424011V6.25398L33.6164 0.424011H22.1807Z" fill="#1A237B"/>
<path d="M15.9042 0.424011H4.46851L15.9042 6.25398V0.424011Z" fill="#1A237B"/>
<path d="M0.207031 6.70325H8.50352L0.207031 2.66711V6.70325Z" fill="#1A237B"/>
<path d="M37.8779 0.424011L25.321 6.70245H22.406L34.9629 0.424011H33.6175L22.1818 6.25398V0.424011H20.8364V6.92667V7.59936V8.04782H22.8545H25.5453H26.4422H26.8906H37.8779V6.70245H29.5814L37.8779 2.66631V2.44208V1.99362V0.424011Z" fill="white"/>
<path d="M15.9036 0.423828V6.2538L4.46787 0.423828H0.20752L12.7644 6.70226H9.8494L0.20752 1.99344V2.66612L8.50401 6.70226H0.20752V8.04764H10.9705H12.5401H15.2309H17.0247V7.59918V7.15071V6.92649V0.423828H15.9036Z" fill="white"/>
<path d="M25.5453 11.8583H22.8545H20.8364V12.3067V12.7552V12.9794V19.4821H22.1818V13.6521L33.8417 19.4821H34.2902H35.1871H37.8779V19.2579L25.321 12.9794H28.0118L37.8779 17.9125V17.2398L29.5814 12.9794H37.8779V11.8583H26.8906H25.5453Z" fill="white"/>
<path d="M15.2304 11.8583H12.5397H11.4185H10.9701H0.207031V12.9794H8.50352L0.207031 17.2398V19.2579L12.7639 12.9794H15.4546L2.67357 19.4821H4.24317L15.9031 13.6521V19.4821H17.0242V12.9794V12.3067V11.8583H15.2304Z" fill="white"/>
<path d="M12.7639 12.9798L0.207031 19.2582V19.4824H2.67357L15.4546 12.9798H12.7639Z" fill="#BD0034"/>
<path d="M0.20752 1.99344L9.8494 6.70226H12.7644L0.20752 0.423828V1.99344Z" fill="#BD0034"/>
<path d="M37.8781 0.424011H34.9631L22.4062 6.70245H25.3212L37.8781 0.424011Z" fill="#BD0034"/>
<path d="M25.3215 12.9798L37.8784 19.2582V17.9128L28.0123 12.9798H25.3215Z" fill="#BD0034"/>
<path d="M17.0247 0.423828V6.92649V7.15071V7.59918V8.04764H15.2309H12.5401H10.9705H0.20752V11.8595H10.9705H11.419H12.5401H15.2309H17.0247V12.308V12.9807V19.4833H19.0428H20.8366V12.9807V12.7565V12.308V11.8595H22.8547H25.5455H26.8908H37.8781V9.84147V8.04764H26.8908H26.4424H25.5455H22.8547H20.8366V7.59918V6.92649V0.423828H17.0247Z" fill="#BD0034"/>
<path d="M52.4524 13.4308H54.4704L55.1431 11.4127L55.8158 13.4308H57.8339L56.04 14.5519L56.7127 16.57L55.1431 15.2246L53.3493 16.57L54.022 14.5519L52.4524 13.4308Z" fill="white"/>
<path d="M53.3501 13.6549H54.6955L55.1439 12.3096L55.5924 13.6549H56.9378L55.8166 14.3276L56.2651 15.673L55.1439 15.0003L54.0228 15.673L54.4712 14.3276L53.3501 13.6549Z" fill="#BD0034"/>
<path d="M44.1553 21.5009H46.3976L46.846 19.7071L47.5187 21.5009H49.5368L47.9672 22.8463L48.6399 24.6401L46.846 23.519L45.2764 24.6401L45.9491 22.8463L44.1553 21.5009Z" fill="white"/>
<path d="M45.053 21.9493H46.3984L46.8468 20.6039L47.2953 21.9493H48.6407L47.5195 22.622L47.968 23.9674L46.8468 23.0705L45.7257 23.9674L46.1741 22.622L45.053 21.9493Z" fill="#BD0034"/>
<path d="M59.6282 19.4826H61.6462L62.0947 17.6887L62.7674 19.4826H64.5612L62.9916 20.6037L63.6643 22.3975L62.0947 21.2764L60.7493 22.3975L61.1978 20.6037L59.6282 19.4826Z" fill="white"/>
<path d="M60.5259 19.7067H61.647L62.0955 18.5856L62.544 19.7067H63.6651L62.7682 20.3794L62.9924 21.7248L62.0955 20.8279L61.1986 21.7248L61.4228 20.3794L60.5259 19.7067Z" fill="#BD0034"/>
<path d="M52.2285 34.5052H54.4708L55.1435 32.2629L55.8162 34.5052H58.0585L56.2647 35.8506L56.9373 37.8686L55.1435 36.5232L53.3497 37.8686L54.0224 35.8506L52.2285 34.5052Z" fill="white"/>
<path d="M53.1245 34.7298H54.6941L55.1426 33.3844L55.591 34.7298H57.1606L55.8153 35.6267L56.2637 37.1963L55.1426 36.2994L53.7972 37.1963L54.4699 35.6267L53.1245 34.7298Z" fill="#BD0034"/>
</svg>
