<svg width="18" height="18" viewBox="0 0 18 18" fill="none" xmlns="http://www.w3.org/2000/svg">
<path d="M14.9144 11.3994L12.0556 9.71989V8.37925L14.7422 7.45571C14.9014 7.40102 15.0063 7.24904 15.0011 7.08086C14.9959 6.91265 14.8817 6.76745 14.7196 6.72269L11.7738 5.90972C11.5678 5.85261 11.2896 5.98972 11.2879 6.27974V9.26886L7.99384 7.33367V5.85839L10.6805 4.93487C10.8396 4.88016 10.9446 4.72818 10.9394 4.56C10.9342 4.39179 10.82 4.24659 10.6578 4.20183L7.71209 3.38887C7.50573 3.33177 7.22797 3.46886 7.2261 3.75888V6.88263L3.93209 4.94744V3.48222L6.61873 2.55868C6.77785 2.50399 6.88282 2.35201 6.8776 2.18383C6.87241 2.01562 6.75825 1.87042 6.59606 1.82566L3.65037 1.01272C3.44406 0.95563 3.16624 1.09274 3.1644 1.38274V4.4964L2.57832 4.15208C2.45961 4.08232 2.31267 4.0815 2.19321 4.14991C2.0737 4.21829 2 4.34539 2 4.48305V12.6161C2 12.8281 2.17187 13 2.38386 13H14.7199C14.9319 13 15.1038 12.8281 15.1038 12.6161V11.7303C15.1038 11.5943 15.0317 11.4683 14.9144 11.3994ZM12.0556 7.56744V6.78388L13.3199 7.1328L12.0556 7.56744ZM7.99384 5.04658V4.26304L9.25818 4.61197L7.99384 5.04658ZM3.93209 2.67043V1.88687L5.19643 2.2358L3.93209 2.67043ZM14.3361 12.2323H2.76772V5.15378L3.33645 5.48791C3.34748 5.49523 3.35894 5.50189 3.37074 5.50805L14.3361 11.9501V12.2323Z" fill="#6A7BFF"/>
<path d="M3.68327 7.86193L8.43205 10.6469C8.49308 10.6827 8.5599 10.6997 8.62587 10.6997C8.75761 10.6997 8.8859 10.6318 8.95735 10.51C9.0646 10.3271 9.00328 10.0919 8.82041 9.98468L4.07165 7.1997C3.88878 7.09247 3.65361 7.15376 3.54636 7.33663C3.4391 7.51948 3.50039 7.75468 3.68327 7.86193Z" fill="#6A7BFF"/>
</svg>
