<svg width="27" height="27" viewBox="0 0 27 27" fill="none" xmlns="http://www.w3.org/2000/svg">
<path d="M26 11.347C26 8.62964 23.7881 6.41892 21.0693 6.41892H15.7957C15.5588 5.67896 14.9731 5.09362 14.2328 4.85687V2.46424H20.3064V0.999542H6.69362V2.46424H12.7672V4.85687C12.0269 5.09367 11.4412 5.67896 11.2043 6.41892H5.93068C3.21191 6.41892 1 8.62964 1 11.347V24.5347H3.93112V25.9995H23.0689V24.5347H26V11.347ZM13.5 6.20737C14.0208 6.20737 14.4444 6.63082 14.4444 7.15127C14.4444 7.67178 14.0208 8.09517 13.5 8.09517C12.9793 8.09517 12.5556 7.67173 12.5556 7.15127C12.5556 6.63082 12.9792 6.20737 13.5 6.20737ZM21.6034 24.5348H5.39661V23.07H21.6034V24.5348ZM20.1378 21.6053H6.8622V16.3117H20.1378V21.6053ZM24.5345 23.07H23.0689V21.6053H21.6033V14.847H5.39671V21.6053H3.93112V23.07H2.46549V11.347C2.46549 9.43727 4.01998 7.88362 5.93068 7.88362H11.2043C11.5152 8.85472 12.4266 9.55987 13.5 9.55987C14.5734 9.55987 15.4848 8.85472 15.7957 7.88362H21.0693C22.98 7.88362 24.5345 9.43727 24.5345 11.347V23.07Z" fill="#6A7BFF" stroke="#6A7BFF" stroke-width="0.7"/>
</svg>
