<svg width="18" height="18" viewBox="0 0 18 18" fill="none" xmlns="http://www.w3.org/2000/svg">
<g clip-path="url(#clip0)">
<path d="M17.6531 13.1287L16.3736 13.5276L14.3851 12.3795L16.487 11.7242L16.1402 10.6119L13.0125 11.587L12.0598 11.0371L11.6131 9.94306L12.0598 8.84907L13.2976 8.13445L15.4981 8.82052L15.8449 7.70823L14.6702 7.34197L16.3736 6.3585L17.6531 6.75742L17.9999 5.64513L16.9897 5.33018L17.222 4.29781L16.0853 4.042L15.791 5.34956L14.0876 6.33303L14.3578 5.13258L13.2212 4.87677L12.7151 7.12547L11.4773 7.84008L10.3066 7.68L9.58247 6.74608V5.6461L11.9909 3.42494L11.201 2.5685L9.58247 4.06123V1.76504L10.5677 0.856401L9.77782 0L8.99998 0.717409L8.22211 0L7.43223 0.85644L8.41741 1.76508V4.06126L6.79886 2.56854L6.00902 3.42498L8.41741 5.64614V6.74616L7.69336 7.68004L6.52254 7.84012L5.28482 7.12551L4.77871 4.87681L3.64207 5.13262L3.91225 6.33307L2.20885 5.3496L1.91455 4.04204L0.777915 4.29785L1.01023 5.33022L0 5.64517L0.346801 6.75746L1.62628 6.35854L3.32964 7.34197L2.15495 7.70819L2.50175 8.82048L4.70225 8.13445L5.94001 8.84907L6.38678 9.94306L5.94009 11.0371L4.98745 11.587L1.85968 10.6119L1.51288 11.7242L3.61485 12.3795L1.62632 13.5276L0.34684 13.1287L3.88142e-05 14.241L1.01027 14.5559L0.777954 15.5883L1.91459 15.8441L2.20889 14.5366L4.19742 13.3885L3.71396 15.5365L4.8506 15.7924L5.57003 12.596L6.52262 12.046L7.69344 12.2061L8.41749 13.14V14.5692L6.72309 16.1319L7.51297 16.9883L8.41749 16.1541V18.1211L7.43231 19.0297L8.22218 19.8862L9.00002 19.1688L9.77786 19.8862L10.5677 19.0297L9.58255 18.1211V16.1541L10.4871 16.9883L11.2769 16.1319L9.58255 14.5692V13.14L10.3066 12.2061L11.4774 12.046L12.43 12.596L13.1494 15.7924L14.2861 15.5365L13.8026 13.3885L15.7912 14.5366L16.0854 15.8441L17.2221 15.5883L16.9898 14.5559L18 14.241L17.6531 13.1287ZM10.7726 10.9665L9.67731 11.1162L8.99998 11.9899L8.32269 11.1162L7.22737 10.9665L7.64532 9.94306L7.22737 8.91963L8.32269 8.76988L8.99998 7.89624L9.67731 8.76988L10.7726 8.91963L10.3546 9.94306L10.7726 10.9665Z" fill="#6A7BFF"/>
</g>
<defs>
<clipPath id="clip0">
<rect width="18" height="18" fill="white"/>
</clipPath>
</defs>
</svg>
