<svg width="18" height="18" viewBox="0 0 18 18" fill="none" xmlns="http://www.w3.org/2000/svg">
<path d="M17.2536 2.35144L13.6548 1.35823C13.4029 1.28854 13.0634 1.45578 13.0611 1.81028V6.26295C13.0611 6.52195 13.2711 6.73192 13.5301 6.73192C13.7891 6.73192 13.999 6.52195 13.999 6.26295V4.37524L17.2813 3.24694C17.4757 3.18013 17.604 2.99445 17.5976 2.78898C17.5913 2.58351 17.4518 2.40615 17.2536 2.35144ZM13.999 3.38351V2.42622L15.5437 2.85251L13.999 3.38351Z" fill="#6A7BFF"/>
<path d="M12.8281 16.1042C12.1562 15.7976 10.4124 14.7351 10.4124 13.5166C10.4124 12.9753 10.8788 12.5149 11.4189 11.9819C11.8656 11.5409 12.3275 11.085 12.6093 10.497C12.9489 9.78832 12.9479 9.04647 12.606 8.22916C12.6055 8.22779 12.6049 8.22638 12.6043 8.225C12.1765 7.22914 11.3782 6.57815 10.6739 6.0038C10.0687 5.51029 9.54602 5.08406 9.53879 4.64127C9.5322 4.23796 9.92097 3.6918 10.6943 3.01799C11.0399 2.71688 12.1433 1.84589 12.1544 1.83713C12.4584 1.61338 12.3667 1.01363 11.8639 1H7.7979C7.70698 1 7.61801 1.02645 7.54185 1.0761C7.50824 1.09801 6.70928 1.62113 5.89903 2.35703C4.79121 3.36318 4.20853 4.27256 4.16476 5.06208L3.09365 4.76648C2.84172 4.69673 2.50209 4.86424 2.49991 5.21853V9.6712C2.49991 9.93019 2.70988 10.1402 2.96887 10.1402C3.22787 10.1402 3.43784 9.93019 3.43784 9.6712V7.78349L5.3741 7.1179C6.06332 7.77545 6.55614 8.34503 5.9805 9.51997C5.60605 10.2843 4.79818 10.773 4.01688 11.2456C3.1055 11.797 2.1631 12.3671 2.01831 13.3943C1.88844 14.3159 2.44688 15.4138 3.77571 16.8496C3.86447 16.9455 3.98921 17 4.1199 17H12.6338C12.8544 17 13.045 16.8461 13.0918 16.6305C13.1387 16.415 13.0288 16.1958 12.8281 16.1042ZM3.43781 6.79172V5.83444L4.63213 6.16406C4.64736 6.16903 4.66274 6.17344 4.67844 6.17684L4.98245 6.26076L3.43781 6.79172ZM4.32665 16.0621C3.32969 14.9559 2.86564 14.1029 2.94705 13.5251C3.02965 12.939 3.71212 12.5262 4.50233 12.0481C5.35769 11.5307 6.32716 10.9442 6.82277 9.9326C7.22845 9.10456 7.28101 8.36938 6.98353 7.6851C6.83189 7.33635 6.6046 7.04159 6.35993 6.77903L6.72009 6.65522C6.91453 6.58841 7.04274 6.40273 7.03639 6.19726C7.03005 5.99176 6.89058 5.81437 6.69242 5.75968L5.13127 5.32883C5.11164 5.26105 5.09969 5.19911 5.09969 5.15769C5.09969 4.85708 5.28434 4.18471 6.52106 3.0591C7.10586 2.52686 7.6996 2.10398 7.94131 1.93793H10.5267C10.3454 2.08531 10.1821 2.22031 10.0782 2.31085C9.05882 3.1991 8.58945 3.94445 8.60108 4.65658C8.61543 5.53536 9.32741 6.11597 10.0812 6.73069C10.7318 7.26122 11.4045 7.80975 11.7417 8.59327C11.9767 9.15627 11.9836 9.63249 11.7635 10.0917C11.5524 10.5322 11.1496 10.9298 10.76 11.3143C10.128 11.9381 9.47448 12.5832 9.47448 13.5166C9.47448 14.3978 10.0003 15.278 10.995 16.0621H4.32665Z" fill="#6A7BFF"/>
<path d="M15.7736 14.6408C16.0326 14.6408 16.2426 14.4308 16.2426 14.1718C16.2426 13.9128 16.0326 13.7029 15.7736 13.7029C15.5146 13.7029 15.3046 13.9128 15.3046 14.1718C15.3046 14.4308 15.5146 14.6408 15.7736 14.6408Z" fill="#6A7BFF"/>
<path d="M14.073 13.639C14.332 13.639 14.542 13.4291 14.542 13.1701C14.542 12.9111 14.332 12.7011 14.073 12.7011C13.814 12.7011 13.604 12.9111 13.604 13.1701C13.604 13.4291 13.814 13.639 14.073 13.639Z" fill="#6A7BFF"/>
</svg>
