<svg width="18" height="18" viewBox="0 0 18 18" fill="none" xmlns="http://www.w3.org/2000/svg">
<path d="M12.6343 5.29241C12.4407 5.26112 12.2464 5.23728 12.0524 5.21716C12.001 4.84331 11.5163 4.40625 10.9687 4.40625C10.4219 4.40625 9.93754 4.84244 9.88526 5.21584C9.55736 5.25019 9.23032 5.29897 8.90504 5.36437C7.42695 5.66188 6.31132 6.87134 6.12889 8.37416L5.94142 9.91962C4.76979 10.4262 3.70251 11.2827 2.9662 11.8785L2.96642 11.8787C2.83845 11.952 2.72054 12.0448 2.63611 12.1664C2.50245 12.3589 2.47992 12.6039 2.57682 12.8063C2.6687 12.9981 2.85661 13.1219 3.07951 13.1374C3.45839 13.1641 3.85651 12.9209 4.17501 12.7255C4.22029 12.6977 4.26317 12.6713 4.30364 12.6474C4.64861 12.4433 4.93057 12.2285 5.16004 11.9942C5.38339 12.059 5.61723 12.1583 5.87514 12.2928C6.09826 12.4094 6.33648 12.5665 6.5887 12.7327C7.18698 13.1272 7.86489 13.5741 8.55635 13.5933C8.56248 13.5938 8.5686 13.594 8.57473 13.594C9.12839 13.594 10.0624 12.9132 11.2236 12.0251C11.6164 11.7245 11.9864 11.4421 12.1664 11.3459C12.183 11.3459 12.1999 11.3461 12.2167 11.3461C13.6038 11.3461 14.691 11.1365 15.4485 10.7233C15.5187 10.685 15.5625 10.6113 15.5625 10.5312V8.74691C15.5625 7.019 14.3311 5.56606 12.6343 5.29241ZM10.9687 4.84375C11.2577 4.84375 11.4883 5.04041 11.5804 5.17844C11.1726 5.15437 10.7649 5.1535 10.3578 5.17734C10.4505 5.03931 10.6804 4.84375 10.9687 4.84375ZM6.56311 8.42709C6.72257 7.11197 7.69842 6.05366 8.99123 5.79356C9.6162 5.66778 10.2471 5.60369 10.879 5.598C11.1052 5.84781 12.0395 7.11109 11.9091 10.7802C10.599 10.1268 9.34123 9.53463 7.82573 9.49919C7.34907 9.48869 6.87089 9.58166 6.40407 9.73959L6.56311 8.42709ZM4.08095 12.2712C4.03873 12.2961 3.99367 12.3239 3.94642 12.353C3.69529 12.507 3.34945 12.7181 3.11036 12.7015C3.04276 12.6969 2.99617 12.6684 2.97167 12.6177C2.94257 12.5569 2.95176 12.4799 2.99573 12.4164C3.10576 12.2578 3.38992 12.1585 3.59729 12.0863L3.62551 12.0765C3.95429 11.9614 4.24654 11.9024 4.53442 11.9024C4.56045 11.9024 4.58648 11.9028 4.61229 11.9037C4.45807 12.0306 4.28176 12.1524 4.08095 12.2712ZM10.9578 11.6775C10.2335 12.2316 9.02448 13.1565 8.57736 13.1565C8.57429 13.1565 8.57145 13.1565 8.5686 13.1565C8.00204 13.1407 7.40595 12.7478 6.82954 12.3681C6.56792 12.1955 6.32051 12.0325 6.0777 11.9057C5.50698 11.6075 5.02704 11.4631 4.53661 11.4631C4.41564 11.4631 4.29401 11.4719 4.1702 11.4894C5.20751 10.7163 6.53445 9.90716 7.81523 9.93669C9.21764 9.9695 10.4177 10.5267 11.6661 11.1481C11.4712 11.2848 11.2308 11.4686 10.9578 11.6775ZM15.125 10.3982C14.4602 10.7255 13.5257 10.8939 12.3414 10.9058C12.4698 7.754 11.8422 6.24594 11.4334 5.60938C11.8109 5.62709 12.1885 5.66362 12.5647 5.72444C14.0483 5.96353 15.125 7.23491 15.125 8.74691V10.3982Z" fill="#6A7BFF" stroke="#6A7BFF" stroke-width="0.4"/>
</svg>
