<svg width="14" height="11" viewBox="0 0 14 11" fill="none" xmlns="http://www.w3.org/2000/svg">
<path d="M13.897 2.69801L13.8964 2.6916C13.8845 2.57891 13.7665 1.57649 13.2792 1.06679C12.716 0.467147 12.0775 0.394302 11.7704 0.359375C11.745 0.356384 11.7217 0.35382 11.7009 0.351043L11.6764 0.34848C9.82557 0.213898 7.03043 0.195526 7.00244 0.195312H6.99753C6.96955 0.195526 4.1744 0.213898 2.30691 0.34848L2.28224 0.351043C2.26237 0.353714 2.24047 0.35617 2.21666 0.358947C1.9131 0.393982 1.28142 0.466934 0.716597 1.08815C0.252502 1.59262 0.118347 2.57347 0.104568 2.6837L0.102966 2.69801C0.0988005 2.7449 0 3.86118 0 4.98185V6.02945C0 7.15012 0.0988005 8.2664 0.102966 8.31329L0.103714 8.32045C0.11557 8.43121 0.23349 9.41516 0.71852 9.92518C1.24809 10.5048 1.91769 10.5814 2.27786 10.6227C2.33479 10.6292 2.38392 10.6348 2.41725 10.6407L2.44961 10.6451C3.51826 10.7469 6.86882 10.797 7.01088 10.799L7.01515 10.7991L7.01932 10.799C7.04741 10.7989 9.84245 10.7805 11.6933 10.6458L11.7177 10.6434C11.741 10.6403 11.7673 10.6375 11.7961 10.6345C12.0981 10.6025 12.7262 10.5359 13.2834 9.92315C13.7475 9.41868 13.8816 8.43783 13.8954 8.32761L13.897 8.31329C13.9012 8.2664 14 7.15012 14 6.02945V4.98185C14 3.86118 13.9012 2.74501 13.897 2.69801ZM9.15127 5.86966L6.05834 7.53282C5.97342 7.57854 5.88114 7.60129 5.78907 7.60129C5.68856 7.60129 5.58826 7.57416 5.49779 7.52022C5.32454 7.41661 5.22115 7.23428 5.22115 7.03252V3.67693C5.22115 3.47421 5.32519 3.29156 5.4995 3.18817C5.67382 3.08488 5.88413 3.08114 6.06197 3.17845L9.15491 4.87087C9.33787 4.97095 9.45109 5.16279 9.45035 5.37139C9.4496 5.57988 9.33499 5.77086 9.15127 5.86966Z" fill="#6A7BFF"/>
</svg>
