<svg width="18" height="18" viewBox="0 0 18 18" fill="none" xmlns="http://www.w3.org/2000/svg">
<path d="M15.2025 11.798C15.4677 11.4597 15.5949 11.0971 15.5787 10.7236C15.5625 10.3123 15.3784 9.99023 15.2269 9.79267C15.4028 9.35426 15.4704 8.66417 14.8832 8.12833C14.4529 7.73593 13.7222 7.56002 12.7101 7.60873C11.9983 7.64121 11.403 7.77381 11.3786 7.77923H11.3759C11.2406 7.80358 11.0972 7.83335 10.951 7.86583C10.9402 7.69263 10.97 7.26233 11.2893 6.2935C11.6682 5.14064 11.6465 4.2584 11.2189 3.66844C10.7697 3.04871 10.0525 3 9.84146 3C9.63849 3 9.45176 3.08389 9.31916 3.23815C9.01876 3.58725 9.05394 4.23134 9.09183 4.52903C8.73461 5.48704 7.7333 7.83606 6.88624 8.48826C6.87 8.49909 6.85647 8.51262 6.84294 8.52615C6.59397 8.78865 6.42618 9.07281 6.31252 9.32178C6.15285 9.23519 5.97153 9.18647 5.77668 9.18647H4.12587C3.50344 9.18647 3.00008 9.69254 3.00008 10.3123V14.7099C3.00008 15.3324 3.50614 15.8357 4.12587 15.8357H5.77668C6.01754 15.8357 6.24216 15.7599 6.42618 15.63L7.06215 15.7058C7.15957 15.7193 8.89157 15.9385 10.6696 15.9034C10.9916 15.9277 11.2947 15.9413 11.5762 15.9413C12.0606 15.9413 12.4828 15.9034 12.8346 15.8276C13.6627 15.6517 14.2283 15.2999 14.5151 14.783C14.7343 14.3879 14.7343 13.9955 14.6992 13.7465C15.2377 13.2594 15.3324 12.7208 15.3135 12.342C15.3027 12.1227 15.2539 11.936 15.2025 11.798ZM4.12587 15.105C3.90667 15.105 3.73076 14.9264 3.73076 14.7099V10.3096C3.73076 10.0904 3.90937 9.91445 4.12587 9.91445H5.77668C5.99589 9.91445 6.17179 10.0931 6.17179 10.3096V14.7072C6.17179 14.9264 5.99318 15.1023 5.77668 15.1023H4.12587V15.105ZM14.5097 11.4814C14.3961 11.6004 14.3744 11.7818 14.461 11.9225C14.461 11.9252 14.572 12.1146 14.5855 12.3744C14.6044 12.7289 14.434 13.0429 14.0767 13.3108C13.9495 13.4082 13.8981 13.576 13.9522 13.7275C13.9522 13.7303 14.0686 14.0875 13.8792 14.4258C13.6979 14.7505 13.2946 14.9832 12.683 15.1131C12.1932 15.2187 11.5275 15.2376 10.7102 15.1727C10.6993 15.1727 10.6858 15.1727 10.6723 15.1727C8.93216 15.2106 7.1731 14.9832 7.15416 14.9805H7.15145L6.87812 14.9481C6.89436 14.8723 6.90248 14.7911 6.90248 14.7099V10.3096C6.90248 10.1932 6.88354 10.0795 6.85106 9.97399C6.89977 9.79267 7.03509 9.38944 7.35442 9.04575C8.56953 8.08232 9.75757 4.83213 9.80899 4.6914C9.83064 4.63457 9.83605 4.57233 9.82522 4.51008C9.77922 4.20698 9.79545 3.83623 9.8604 3.72527C10.0038 3.72798 10.3908 3.76857 10.6236 4.09062C10.8996 4.4722 10.8888 5.15417 10.5911 6.05806C10.1364 7.43553 10.0986 8.16081 10.4585 8.48014C10.6371 8.63981 10.8752 8.64793 11.0484 8.58569C11.2135 8.5478 11.3705 8.51532 11.5193 8.49097C11.5302 8.48826 11.5437 8.48556 11.5545 8.48285C12.3853 8.30153 13.8738 8.19058 14.3907 8.66146C14.8291 9.06199 14.5178 9.59241 14.4827 9.64924C14.3825 9.80079 14.4123 9.99835 14.5476 10.1201C14.5503 10.1228 14.8345 10.3908 14.848 10.7507C14.8588 10.9915 14.7452 11.2378 14.5097 11.4814Z" fill="#6A7BFF" stroke="#6A7BFF" stroke-width="0.3"/>
</svg>
