<svg width="77" height="45" viewBox="0 0 77 45" fill="none" xmlns="http://www.w3.org/2000/svg">
<path d="M76.2058 14.998H0.864746V29.5729H76.2058V14.998Z" fill="white"/>
<path d="M76.207 0.423828H0.865967V14.9988H76.207V0.423828Z" fill="#80A7D8"/>
<path d="M76.2058 29.7968H0.864746V44.3717H76.2058V29.7968Z" fill="#80A7D8"/>
<path d="M38.312 22.3985L38.5362 28.4527L38.7604 22.3985H38.312Z" fill="#F1BD51"/>
<path d="M38.5364 28.4538L38.3123 22.3996L38.5364 28.4538L38.7606 22.3996L38.5364 28.4538C38.7607 28.4538 38.7607 28.4538 38.5364 28.4538Z" fill="#7A361D"/>
<path d="M38.5347 22.3985V26.4346L38.7588 22.3985H38.5347Z" fill="#7A361D"/>
<path d="M38.0873 24.1903C37.6388 24.863 38.0872 25.5357 37.6388 26.2084C37.1903 26.8811 37.4146 27.3295 37.4146 27.778C37.4146 28.0022 37.1904 28.2264 37.1904 28.2264C37.1904 28.2264 37.4145 28.2264 37.6388 27.778C37.6388 27.3295 37.4146 27.1053 37.8631 26.4326C38.3116 25.5357 37.8631 25.3115 38.3116 24.6388L38.0873 24.1903Z" fill="#F1BD51"/>
<path d="M37.4128 28.225C37.1886 28.225 37.1886 28.225 37.4128 28.225C37.4128 28.0008 37.637 28.0008 37.637 27.7765V27.5523C37.637 27.3281 37.6371 26.8796 37.8613 26.4312C38.0855 26.2069 38.0855 25.7585 38.0855 25.5342C38.0855 25.31 38.0855 24.8615 38.3098 24.4131C38.0855 24.8615 38.0855 25.0858 38.0855 25.5342C38.0855 25.7585 38.0855 26.2069 37.8613 26.4312C37.6371 26.8796 37.637 27.3281 37.637 27.5523C37.637 27.7765 37.637 27.7765 37.637 27.7765C37.4127 28.0008 37.4128 28.0008 37.4128 28.225C37.1886 28.225 37.1886 28.225 37.4128 28.225C37.4128 28.225 37.6371 28.0008 37.8613 27.7765C37.8613 27.5523 37.8613 27.5523 37.8613 27.3281C37.8613 27.1038 37.8612 26.8796 38.0855 26.2069C38.3097 25.7585 38.3098 25.5342 38.3098 25.31C38.3098 25.0858 38.3097 24.6373 38.5339 24.4131C38.3097 24.8615 38.3098 25.0858 38.3098 25.31C38.3098 25.5342 38.3097 25.9827 38.0855 26.2069C37.8612 26.6554 37.8613 27.1038 37.8613 27.3281C37.8613 27.5523 37.8613 27.5523 37.8613 27.7765C37.6371 28.0008 37.4128 28.225 37.4128 28.225Z" fill="#7A361D"/>
<path d="M38.0874 24.4131C37.8632 25.0858 38.0874 25.7585 37.6389 26.2069C38.0874 25.9827 37.8632 25.31 38.0874 24.4131Z" fill="#7A361D"/>
<path d="M38.9832 22.3957L38.7588 16.3415L38.5347 22.3957H38.9832Z" fill="#F1BD51"/>
<path d="M38.7604 22.3971L38.5362 16.3429L38.312 22.3971L38.5362 16.3429V16.1187C38.5362 16.1187 38.5362 16.1187 38.5362 16.3429L38.7604 22.3971Z" fill="#7A361D"/>
<path d="M38.7588 22.3979L38.5347 18.3618V22.3979H38.7588Z" fill="#7A361D"/>
<path d="M39.2083 20.3776C39.6568 19.7049 39.2083 19.0322 39.6568 18.3596C40.1053 17.6869 39.881 17.2384 39.881 16.79C39.881 16.5657 40.1053 16.3415 40.1053 16.3415C40.1053 16.3415 39.881 16.3415 39.6568 16.79C39.6568 17.2384 39.8811 17.4626 39.4326 18.1353C38.9842 19.0322 39.4326 19.2565 38.9841 19.9292L39.2083 20.3776Z" fill="#F1BD51"/>
<path d="M39.2073 20.3762C39.4316 19.9277 39.4316 19.7035 39.4316 19.255C39.4316 18.8066 39.4316 18.5823 39.6558 18.3581C39.88 17.9096 39.88 17.4612 39.88 17.237C39.88 17.0127 39.88 17.0127 39.88 17.0127C39.88 16.7885 39.8801 16.7885 40.1043 16.5643C39.8801 16.5643 39.88 16.7885 39.6558 17.0127C39.6558 17.237 39.6558 17.237 39.6558 17.4612C39.6558 17.6854 39.6559 17.9096 39.4316 18.5823C39.2074 19.0308 39.2073 19.255 39.2073 19.4793C39.2073 19.7035 39.2074 19.9277 38.9832 20.3762C39.2074 19.9277 39.2073 19.7035 39.2073 19.4793C39.2073 19.255 39.2074 18.8066 39.4316 18.5823C39.6559 18.1339 39.6558 17.6854 39.6558 17.4612C39.6558 17.237 39.6558 17.237 39.6558 17.0127C39.6558 16.7885 39.8801 16.5643 40.1043 16.5643C40.1043 16.5643 40.1043 16.5643 40.1043 16.7885L39.88 17.0127V17.237C39.88 17.4612 39.88 17.9096 39.6558 18.3581C39.4316 18.5823 39.4316 19.0308 39.4316 19.255C39.4316 19.7035 39.4316 20.1519 39.2073 20.3762Z" fill="#7A361D"/>
<path d="M38.9841 20.1556C39.2084 19.4829 38.9842 18.8102 39.4326 18.3618C38.9842 18.8102 39.2084 19.4829 38.9841 20.1556Z" fill="#7A361D"/>
<path d="M38.5352 22.1719L32.481 22.3962H32.2568H32.481L38.5352 22.6204V22.1719Z" fill="#F1BD51"/>
<path d="M38.5352 22.6196L32.481 22.3954H32.2568C32.2568 22.3954 32.2568 22.3954 32.481 22.3954L38.5352 22.1711L32.481 22.3954L38.5352 22.6196Z" fill="#7A361D"/>
<path d="M38.5351 22.1719L34.499 22.3962L38.5351 22.6204V22.1719Z" fill="#7A361D"/>
<path d="M36.7424 21.7226C36.0697 21.2741 35.397 21.7226 34.7243 21.2741C34.0516 20.8257 33.6031 21.0499 33.1546 21.0499C32.9304 21.0499 32.7063 20.8257 32.7063 20.8257C32.7063 20.8257 32.7062 21.0499 33.1546 21.2741C33.6031 21.2741 33.8274 21.0499 34.5001 21.4984C35.397 21.9468 35.6212 21.4984 36.2939 21.9468L36.7424 21.7226Z" fill="#F1BD51"/>
<path d="M36.5181 22.1716C36.0696 21.9473 35.8455 21.9473 35.6213 21.9473C35.397 21.9473 34.9485 21.9473 34.7243 21.7231C34.2758 21.4989 33.8274 21.4989 33.6031 21.4989C33.3789 21.4989 33.3789 21.4989 33.1546 21.4989C32.9304 21.4989 32.7063 21.2746 32.7063 21.0504C32.7063 21.0504 32.7062 21.0504 32.9305 21.0504L33.1546 21.2746H33.379C33.6032 21.2746 34.0516 21.2746 34.5001 21.4989C34.7243 21.7231 35.1727 21.7231 35.3969 21.7231C35.6212 21.7231 36.0696 21.7231 36.5181 21.9473C36.0696 21.7231 35.8454 21.7231 35.3969 21.7231C34.9485 21.7231 34.7243 21.7231 34.5001 21.4989C34.0516 21.2746 33.6032 21.2746 33.379 21.2746C33.1547 21.2746 33.1546 21.2746 33.1546 21.2746C32.9304 21.2746 32.9305 21.2746 32.7063 21.0504C32.7063 21.2746 32.9304 21.2746 33.1546 21.4989C33.3789 21.4989 33.3789 21.4989 33.6031 21.4989C33.8274 21.4989 34.0516 21.4989 34.7243 21.7231C35.1727 21.9473 35.397 21.9473 35.6213 21.9473C35.8455 21.9473 36.0696 21.9473 36.5181 22.1716Z" fill="#7A361D"/>
<path d="M36.5165 21.9501C35.8438 21.7259 35.1711 21.9501 34.7227 21.5016C34.9469 21.9501 35.6195 21.7259 36.5165 21.9501Z" fill="#7A361D"/>
<path d="M38.5347 22.6204L44.5889 22.3962L38.5347 22.1719V22.6204Z" fill="#F1BD51"/>
<path d="M38.5342 22.6196L44.5884 22.3954L38.5342 22.1711L44.5884 22.3954H44.8126C44.8126 22.3954 44.8126 22.3954 44.5884 22.3954L38.5342 22.6196Z" fill="#7A361D"/>
<path d="M38.5347 22.6204L42.7951 22.3962L38.5347 22.1719V22.6204Z" fill="#7A361D"/>
<path d="M40.554 22.8474C41.2266 23.2959 41.8993 22.8474 42.5719 23.2959C43.2446 23.7443 43.6931 23.5201 44.1416 23.5201C44.3658 23.5201 44.5901 23.7443 44.5901 23.7443C44.5901 23.7443 44.59 23.5201 44.1416 23.2959C43.6931 23.2959 43.4689 23.5201 42.7963 23.0716C41.8993 22.6232 41.675 23.0716 41.0023 22.6232L40.554 22.8474Z" fill="#F1BD51"/>
<path d="M44.3653 23.7436C44.141 23.5194 44.1411 23.5194 43.9169 23.5194H43.6926C43.4684 23.5194 43.0199 23.5194 42.5715 23.2952C42.3472 23.071 41.8988 23.071 41.6746 23.071C41.4504 23.071 41.0019 23.071 40.5535 22.8467C41.0019 23.071 41.2262 23.071 41.6746 23.071C42.1231 23.071 42.3472 23.071 42.5715 23.2952C43.0199 23.5194 43.4684 23.5194 43.6926 23.5194C43.9168 23.5194 43.9169 23.5194 43.9169 23.5194C44.1411 23.5194 44.3653 23.5194 44.3653 23.7436C44.3653 23.5194 44.1411 23.2952 43.9169 23.2952C43.6927 23.2952 43.6927 23.2952 43.4684 23.2952C43.2442 23.2952 43.02 23.2952 42.3473 23.071C41.8988 22.8467 41.6745 22.8467 41.4503 22.8467C41.2261 22.8467 41.0019 22.8467 40.5535 22.6225C41.0019 22.8467 41.2261 22.8467 41.4503 22.8467C41.6745 22.8467 42.123 22.8467 42.3473 23.071C42.7957 23.2952 43.2442 23.2952 43.4684 23.2952C43.6927 23.2952 43.6927 23.2952 43.9169 23.2952C44.3654 23.2952 44.5895 23.5194 44.3653 23.7436C44.5895 23.7436 44.5895 23.7436 44.3653 23.7436Z" fill="#7A361D"/>
<path d="M40.7769 22.846C41.4495 23.0702 42.1222 22.846 42.5707 23.2945C42.1222 22.846 41.4495 23.0702 40.7769 22.846Z" fill="#7A361D"/>
<path d="M38.3124 22.1719L34.2761 26.6565C34.2761 26.6565 34.2761 26.6565 34.2761 26.8808H34.5004L38.985 22.8446L38.3124 22.1719Z" fill="#F1BD51"/>
<path d="M34.2749 26.6557L38.3111 22.1711L34.2749 26.6557C34.2749 26.6557 34.4991 26.6557 34.2749 26.6557L38.7595 22.3954L34.2749 26.6557C34.4991 26.6557 34.2749 26.6557 34.2749 26.6557Z" fill="#7A361D"/>
<path d="M38.5353 22.1719L35.6204 25.3112L38.7595 22.3962L38.5353 22.1719Z" fill="#7A361D"/>
<path d="M36.7419 23.2916C36.0692 23.5158 35.845 24.1885 34.9481 24.4127C34.2754 24.6369 34.0511 25.0854 33.8269 25.3096C33.6027 25.5339 33.3784 25.3096 33.3784 25.5339C33.3784 25.5339 33.6026 25.7581 34.0511 25.5339C34.4995 25.3096 34.4995 25.0854 35.1722 24.6369C36.0691 24.4127 36.0691 23.9643 36.966 23.74L36.7419 23.2916Z" fill="#F1BD51"/>
<path d="M33.6028 25.7638C33.3786 25.5396 33.6028 25.5396 33.6028 25.7638C33.6028 25.5396 33.8271 25.5396 33.8271 25.5396L34.0513 25.3154C34.2755 25.0912 34.4998 24.6427 34.9483 24.6427C35.3968 24.6427 35.6209 24.4185 35.8451 24.1942C36.0694 23.97 36.2936 23.7458 36.7421 23.5215C36.2936 23.7458 36.0694 23.97 35.8451 24.1942C35.6209 24.4185 35.3968 24.6427 34.9483 24.6427C34.4998 24.8669 34.2755 25.0912 34.0513 25.3154L33.8271 25.5396C33.8271 25.5396 33.6028 25.5396 33.6028 25.7638C33.6028 25.5396 33.3786 25.5396 33.6028 25.7638C33.6028 25.7638 33.8271 25.7638 34.0513 25.5396C34.2755 25.5396 34.2755 25.3154 34.2755 25.3154C34.4997 25.0912 34.724 24.8669 35.1725 24.6427C35.6209 24.4185 35.8452 24.4185 36.0694 24.1942C36.2937 23.97 36.5178 23.7458 36.9663 23.7458C36.5178 23.97 36.2937 23.97 36.0694 24.1942C35.8452 24.4185 35.6209 24.6427 35.1725 24.6427C34.724 24.8669 34.4997 25.0912 34.2755 25.3154L34.0513 25.5396C34.0513 25.7638 33.8271 25.7638 33.6028 25.7638Z" fill="#7A361D"/>
<path d="M36.7408 23.52C36.0681 23.9685 35.8438 24.4169 35.1711 24.6412C35.8438 24.6412 36.0681 23.9685 36.7408 23.52Z" fill="#7A361D"/>
<path d="M38.7591 22.6231L42.7953 18.1385C42.7953 18.1385 42.7953 18.1385 42.7953 17.9143H42.571L38.0864 21.9504L38.7591 22.6231Z" fill="#F1BD51"/>
<path d="M38.7606 22.623L42.7968 18.1384L38.3123 22.1746L42.7968 18.1384C42.7968 18.1384 42.7968 18.1384 43.021 18.1384V18.3627L38.7606 22.623Z" fill="#7A361D"/>
<path d="M38.7588 22.3964L41.4496 19.4814L38.5347 22.1721L38.7588 22.3964Z" fill="#7A361D"/>
<path d="M40.3289 21.4997C41.0016 21.2754 41.2258 20.6027 42.1227 20.3785C42.7954 20.1543 43.0196 19.7058 43.2439 19.4816C43.4681 19.2574 43.6924 19.4816 43.6924 19.2574C43.6924 19.2574 43.4682 19.0331 43.0197 19.2574C42.5712 19.4816 42.5712 19.7058 41.8985 20.1543C41.0016 20.3785 41.0017 20.827 40.1047 21.0512L40.3289 21.4997Z" fill="#F1BD51"/>
<path d="M40.3289 21.4977C40.7774 21.2735 41.0017 21.0492 41.2259 20.825C41.4501 20.6008 41.6743 20.3765 42.1227 20.3765C42.5712 20.1523 42.7955 19.9281 43.0197 19.7039L43.2439 19.4796C43.4681 19.2554 43.4681 19.2554 43.6924 19.2554C43.4681 19.2554 43.4682 19.2554 43.0197 19.2554C42.7955 19.2554 42.7955 19.4796 42.7955 19.4796C42.5713 19.7039 42.347 19.9281 41.8985 20.1523C41.4501 20.3765 41.2258 20.3765 41.0016 20.6008C40.7773 20.825 40.5532 21.0492 40.1047 21.0492C40.5532 20.825 40.7773 20.825 41.0016 20.6008C41.2258 20.3765 41.4501 20.1523 41.8985 20.1523C42.347 19.9281 42.5713 19.7039 42.7955 19.4796L43.0197 19.2554C43.2439 19.0312 43.4681 19.0312 43.6924 19.2554C43.6924 19.2554 43.6924 19.2554 43.4682 19.2554C43.4682 19.2554 43.2439 19.2554 43.0197 19.4796L42.7955 19.7039C42.5713 19.9281 42.347 20.3765 41.8985 20.3765C41.4501 20.3765 41.2258 20.6008 41.0016 20.825C41.0016 21.0492 40.7774 21.2735 40.3289 21.4977Z" fill="#7A361D"/>
<path d="M40.3284 21.2785C41.0011 20.83 41.2253 20.3816 41.898 20.1573C41.4495 20.1573 41.2253 20.83 40.3284 21.2785Z" fill="#7A361D"/>
<path d="M38.7593 22.1732L34.2747 18.1371C34.2747 18.1371 34.2748 18.1371 34.0505 18.1371V18.3613L38.0866 22.8459L38.7593 22.1732Z" fill="#F1BD51"/>
<path d="M38.3121 22.6243L34.2759 18.1398C34.2759 18.1398 34.2759 18.1398 34.2759 17.9155H34.5002L38.9848 21.9517L34.5002 17.9155C34.5002 17.9155 34.5001 17.9155 34.2759 17.9155L38.3121 22.6243Z" fill="#7A361D"/>
<path d="M38.7595 22.1721L35.6204 19.4814L38.5353 22.3964L38.7595 22.1721Z" fill="#7A361D"/>
<path d="M37.6379 20.6037C37.4136 19.931 36.7409 19.7068 36.5167 18.8098C36.2925 18.1372 35.8441 17.9129 35.6199 17.6887C35.3956 17.4645 35.6198 17.2402 35.3956 17.2402C35.3956 17.2402 35.1713 17.4645 35.3956 17.9129C35.6198 18.3614 35.8441 18.3614 36.2925 19.0341C36.5168 19.931 36.9653 19.931 37.1895 20.8279L37.6379 20.6037Z" fill="#F1BD51"/>
<path d="M37.1899 20.8289C36.9657 20.3805 36.9656 20.1563 36.7414 19.932C36.5172 19.7078 36.2929 19.4836 36.2929 19.0351C36.0687 18.3624 35.8445 18.3624 35.6203 18.1382L35.396 17.914C35.1717 17.6897 35.1717 17.4655 35.396 17.2413C35.396 17.2413 35.396 17.2413 35.396 17.4655C35.396 17.4655 35.396 17.6897 35.6203 17.914L35.8444 18.1382C36.0687 18.3624 36.5171 18.5866 36.5171 19.0351C36.7413 19.4836 36.7414 19.7078 36.9656 19.932C37.1898 20.1563 37.414 20.3805 37.6383 20.8289C37.414 20.3805 37.1898 20.1563 36.9656 19.932C36.7414 19.7078 36.5171 19.4836 36.5171 19.0351C36.2929 18.5866 36.0687 18.3624 35.8444 18.1382L35.6203 17.914C35.396 17.6897 35.396 17.6897 35.396 17.4655C35.396 17.6897 35.396 17.6897 35.396 18.1382C35.396 18.3624 35.6203 18.3624 35.6203 18.3624C35.8445 18.5866 36.0687 18.8109 36.2929 19.2593C36.5172 19.7078 36.5172 19.932 36.7414 20.1563C36.9656 20.1563 36.9657 20.3805 37.1899 20.8289Z" fill="#7A361D"/>
<path d="M37.4139 20.6054C36.9654 19.9327 36.517 19.7085 36.2927 19.0358C36.2927 19.4843 36.9654 19.7085 37.4139 20.6054Z" fill="#7A361D"/>
<path d="M38.312 22.6199L42.7966 26.656C42.7966 26.656 42.7965 26.656 43.0208 26.656V26.4318L38.9847 21.9472L38.312 22.6199Z" fill="#F1BD51"/>
<path d="M42.7959 26.6557L38.3113 22.6196L42.7959 26.6557C43.0201 26.6557 42.7959 26.6557 42.7959 26.6557L38.7596 22.1711L42.7959 26.6557C43.0201 26.6557 43.0201 26.6557 42.7959 26.6557Z" fill="#7A361D"/>
<path d="M38.5347 22.3962L41.4496 25.3112L38.7588 22.1719L38.5347 22.3962Z" fill="#7A361D"/>
<path d="M39.6562 24.1918C39.8805 24.8644 40.5532 25.0887 40.7774 25.9856C41.0016 26.6583 41.4501 26.8825 41.6744 27.1067C41.8986 27.331 41.6743 27.5552 41.8985 27.5552C41.8985 27.5552 42.1228 27.331 41.8985 26.8825C41.6743 26.4341 41.45 26.4341 41.0016 25.7614C40.7773 24.8644 40.329 24.8644 40.1047 23.9675L39.6562 24.1918Z" fill="#F1BD51"/>
<path d="M41.8976 27.5532C41.6733 27.5532 41.6733 27.329 41.8976 27.5532C41.8976 27.329 41.8976 27.1048 41.6734 27.1048L41.4491 26.8806C41.2249 26.6563 40.7764 26.4321 40.7764 25.9836C40.7764 25.5352 40.5522 25.311 40.3279 25.0867C40.1037 24.8625 39.8795 24.6383 39.6553 24.1898C39.8795 24.6383 40.1037 24.8625 40.3279 25.0867C40.5522 25.311 40.7764 25.5352 40.7764 25.9836C41.0007 26.4321 41.2249 26.6563 41.4491 26.8806L41.6734 27.1048C41.8976 27.1048 41.8976 27.329 41.8976 27.5532C41.8976 27.329 42.1218 27.1048 41.8976 26.8806C41.8976 26.6563 41.6734 26.6563 41.6734 26.6563C41.4492 26.4321 41.2248 26.2079 41.0006 25.7594C40.7764 25.311 40.7765 25.0867 40.5522 24.8625C40.328 24.6383 40.1038 24.414 40.1038 23.9656C40.328 24.414 40.328 24.6383 40.5522 24.8625C40.7765 25.0867 41.0006 25.311 41.0006 25.7594C41.2248 26.2079 41.4492 26.4321 41.6734 26.6563L41.8976 26.8806C41.8976 27.1048 41.8976 27.329 41.8976 27.5532Z" fill="#7A361D"/>
<path d="M39.6562 24.1903C40.1047 24.863 40.5532 25.0872 40.7774 25.7599C40.7774 25.0872 40.1047 24.863 39.6562 24.1903Z" fill="#7A361D"/>
<path d="M38.3108 22.1719L36.2927 27.7777C36.2927 27.7777 36.2927 27.7777 36.2927 28.0019H36.5169L38.9835 22.6204L38.3108 22.1719Z" fill="#F1BD51"/>
<path d="M36.2945 28.0011C36.0703 28.0011 36.2945 28.0011 36.2945 28.0011L38.3126 22.1711L36.2945 28.0011C36.2945 27.7769 36.2945 28.0011 36.2945 28.0011L38.761 22.3954L36.2945 28.0011Z" fill="#7A361D"/>
<path d="M38.5345 22.3985L36.9648 26.2104L38.7587 22.3985H38.5345Z" fill="#7A361D"/>
<path d="M37.4134 23.9675C36.7407 24.6402 36.7407 25.3129 36.2923 25.7614C35.6196 26.2098 35.6196 26.8825 35.6196 27.1067C35.3954 27.331 35.1711 27.331 35.1711 27.5552C35.1711 27.5552 35.3953 27.5552 35.8438 27.331C36.068 27.1067 36.0681 26.6583 36.7408 26.2098C37.4135 25.5371 37.1892 25.0887 37.8619 24.6402L37.4134 23.9675Z" fill="#F1BD51"/>
<path d="M35.1711 27.3305C35.1711 27.1062 35.3953 27.1062 35.3953 26.882V26.6578C35.3953 26.4336 35.6197 25.9851 36.0681 25.5366C36.2923 25.3124 36.5165 25.0882 36.5165 24.6397C36.7407 24.4155 36.7408 23.967 37.1893 23.7428C36.965 23.967 36.7407 24.4155 36.5165 24.6397C36.2922 24.8639 36.2923 25.3124 36.0681 25.5366C35.6197 25.9851 35.6195 26.2093 35.3953 26.6578C35.3953 26.882 35.3953 26.882 35.3953 26.882C35.3953 27.1062 35.1711 27.3305 35.1711 27.3305C35.1711 27.3305 35.3954 27.3305 35.6196 26.882L35.8438 26.6578C35.8438 26.4336 36.068 26.2093 36.5165 25.7609C36.9649 25.5366 36.965 25.3124 37.1893 24.8639C37.4135 24.6397 37.4135 24.4155 37.8619 24.1913C37.6377 24.4155 37.4134 24.6397 37.4134 24.8639C37.1892 25.0882 37.1892 25.3124 36.7408 25.7609C36.2923 26.2093 36.2923 26.4336 36.0681 26.6578C36.0681 26.882 36.068 26.882 35.8438 27.1062C35.6196 27.3305 35.3954 27.3305 35.1711 27.3305Z" fill="#7A361D"/>
<path d="M37.4139 24.1903C36.9654 24.863 36.9654 25.3115 36.2927 25.7599C36.7412 25.5357 36.7412 24.863 37.4139 24.1903Z" fill="#7A361D"/>
<path d="M38.7604 22.3961L40.7785 16.7904C40.7785 16.7904 40.7785 16.7904 40.7785 16.5662L38.312 21.9477L38.7604 22.3961Z" fill="#F1BD51"/>
<path d="M38.9832 22.3985L41.0011 16.7928L38.5347 22.1743L41.0011 16.7928L38.9832 22.3985Z" fill="#7A361D"/>
<path d="M38.7588 22.3964L40.1043 18.5845L38.5347 22.3964H38.7588Z" fill="#7A361D"/>
<path d="M39.881 20.8279C40.5537 20.1552 40.5537 19.4825 41.0021 19.0341C41.6748 18.5856 41.6749 17.9129 41.6749 17.6887C41.8991 17.4645 42.1233 17.4645 42.1233 17.2402C42.1233 17.2402 41.8991 17.2402 41.4506 17.4645C41.2264 17.6887 41.2265 18.1372 40.5538 18.5856C39.8811 19.0341 40.1053 19.7068 39.4326 20.1552L39.881 20.8279Z" fill="#F1BD51"/>
<path d="M39.8807 20.8289C40.105 20.6047 40.3292 20.1562 40.3292 19.932C40.5534 19.7078 40.5535 19.2593 40.7777 19.0351C41.2262 18.5866 41.2261 18.3624 41.4504 17.9139V17.6897C41.4504 17.4655 41.6747 17.4655 41.6747 17.4655C41.4504 17.4655 41.2262 17.4655 41.2262 17.6897L41.0019 17.9139C41.0019 18.1382 40.7777 18.3624 40.3292 18.8109C40.105 19.0351 39.8808 19.2593 39.6565 19.7078C39.4323 19.932 39.4323 20.1562 38.9839 20.3805C39.2081 20.1562 39.4324 19.932 39.4324 19.7078C39.6566 19.4836 39.6566 19.2593 40.105 18.8109C40.5535 18.3624 40.5535 18.1382 40.7777 17.9139C40.7777 17.6897 40.7776 17.6897 41.0019 17.4655C41.2261 17.2413 41.4504 17.017 41.4504 17.2413C41.4504 17.2413 41.2262 17.2413 41.2262 17.4655V17.6897C41.2262 17.9139 41.002 18.3624 40.5535 18.8109C40.3293 19.0351 40.105 19.2593 40.105 19.7078C40.3293 20.1562 40.105 20.6047 39.8807 20.8289Z" fill="#7A361D"/>
<path d="M39.8818 20.6054C40.3303 19.9327 40.3303 19.4843 41.003 19.0358C40.3303 19.2601 40.3303 19.9327 39.8818 20.6054Z" fill="#7A361D"/>
<path d="M38.7589 22.1754L33.1531 20.1573C33.1531 20.1573 33.1532 20.1573 32.929 20.1573V20.3816L38.3105 22.8481L38.7589 22.1754Z" fill="#F1BD51"/>
<path d="M38.5349 22.6196L33.1534 20.1531C33.1534 20.1531 32.9291 20.1531 33.1534 19.9289H33.3777L38.9834 21.947L33.3777 19.9289C33.3777 19.9289 33.3776 19.9289 33.1534 19.9289L38.5349 22.6196Z" fill="#7A361D"/>
<path d="M38.5346 22.1711L34.7227 20.8257L38.5346 22.3953V22.1711Z" fill="#7A361D"/>
<path d="M36.966 21.0496C36.5176 20.3769 35.6207 20.3769 35.1722 19.9285C34.7238 19.2558 34.0511 19.2558 33.8269 19.2558C33.6027 19.0315 33.6026 18.8073 33.3784 18.8073C33.3784 18.8073 33.3784 19.0315 33.6026 19.48C33.8268 19.7042 34.2753 19.7042 34.7237 20.3769C35.3964 21.0496 35.8449 20.8254 36.2934 21.4981L36.966 21.0496Z" fill="#F1BD51"/>
<path d="M36.7419 21.5024C36.5177 21.2781 36.2935 21.0539 36.0692 21.0539C35.845 20.8297 35.6207 20.8297 35.1723 20.3812C34.7238 19.9327 34.4995 19.9327 34.2753 19.7085C34.0511 19.7085 34.0512 19.7085 33.8269 19.4843C33.6027 19.2601 33.3784 19.0358 33.6026 19.0358C33.6026 19.0358 33.6027 19.2601 33.8269 19.2601H34.0511C34.2753 19.2601 34.7238 19.4843 35.1723 19.9327C35.3965 20.157 35.6208 20.3812 36.0692 20.3812C36.2935 20.6054 36.7418 20.6054 36.9661 21.0539C36.7418 20.8297 36.2935 20.6054 36.0692 20.3812C35.845 20.157 35.3965 20.157 35.1723 19.9327C34.7238 19.4843 34.4996 19.4843 34.0511 19.2601C33.8269 19.2601 33.8269 19.2601 33.8269 19.2601C33.6027 19.2601 33.6026 19.0358 33.6026 19.0358C33.6026 19.2601 33.6027 19.4843 33.8269 19.4843C34.0512 19.4843 34.0511 19.7085 34.0511 19.7085C34.2753 19.7085 34.4996 19.9327 34.9481 20.3812C35.1723 20.8297 35.3965 20.8297 35.8449 21.0539C36.2934 21.0539 36.5177 21.0539 36.7419 21.5024Z" fill="#7A361D"/>
<path d="M36.7408 21.0543C36.2923 20.6058 35.6196 20.6058 35.1711 20.1573C35.3954 20.6058 36.0681 20.6058 36.7408 21.0543Z" fill="#7A361D"/>
<path d="M38.5347 22.6204L44.1404 24.6385C44.1404 24.6385 44.1404 24.6385 44.3646 24.6385L38.9832 22.1719L38.5347 22.6204Z" fill="#F1BD51"/>
<path d="M44.1399 24.8619C44.1399 24.8619 44.1399 24.6377 44.1399 24.8619L38.5342 22.6196L44.1399 24.8619C44.1399 24.6377 44.1399 24.6377 44.1399 24.8619C44.1399 24.6377 44.1399 24.6377 44.1399 24.8619L38.7584 22.1711L44.1399 24.8619C44.1399 24.6377 44.3641 24.6377 44.1399 24.8619C44.1399 24.6377 44.1399 24.8619 44.1399 24.8619Z" fill="#7A361D"/>
<path d="M38.5347 22.3962L42.3466 23.9658L38.5347 22.1719V22.3962Z" fill="#7A361D"/>
<path d="M40.1047 23.74C40.7774 24.4127 41.4501 24.4127 41.8985 24.8612C42.347 25.5339 43.0196 25.5339 43.2439 25.5339C43.4681 25.7581 43.4681 25.9823 43.6924 25.9823C43.6924 25.9823 43.6924 25.7581 43.4682 25.3096C43.244 25.0854 42.7955 25.3096 42.347 24.4127C41.6743 23.74 41.2259 23.9643 40.7774 23.2916L40.1047 23.74Z" fill="#F1BD51"/>
<path d="M43.4682 25.7623C43.244 25.538 43.2439 25.538 43.2439 25.3138H43.0197C42.7955 25.3138 42.347 25.0896 41.8985 24.6411C41.6743 24.4169 41.45 24.1927 41.0016 24.1927C40.7773 23.9684 40.329 23.9684 40.1047 23.52C40.329 23.7442 40.7773 23.9684 41.0016 24.1927C41.2258 24.4169 41.6743 24.4169 41.8985 24.6411C42.347 25.0896 42.5712 25.0896 43.0197 25.3138C43.2439 25.3138 43.2439 25.3138 43.2439 25.3138C43.4681 25.538 43.4682 25.7623 43.4682 25.7623C43.4682 25.538 43.4681 25.3138 43.2439 25.0896C43.0196 25.0896 43.0197 24.8654 42.7955 24.8654C42.5713 24.8654 42.347 24.6411 41.8985 24.1927C41.6743 23.7442 41.45 23.7442 41.0016 23.52C40.7773 23.2957 40.5531 23.2957 40.3289 22.8473C40.5531 23.0715 40.7773 23.2957 41.0016 23.2957C41.2258 23.52 41.4501 23.52 41.8985 23.9684C42.347 24.4169 42.5713 24.4169 42.7955 24.6411C43.0197 24.6411 43.0196 24.6411 43.2439 24.8654C43.4681 25.538 43.6924 25.7623 43.4682 25.7623Z" fill="#7A361D"/>
<path d="M40.3284 23.52C41.0011 23.9685 41.4495 23.9685 41.898 24.6412C41.6738 24.1927 41.0011 24.1927 40.3284 23.52Z" fill="#7A361D"/>
<path d="M38.5361 22.1719L33.1545 24.6385H33.3789L38.9846 22.6204L38.5361 22.1719Z" fill="#F1BD51"/>
<path d="M32.9292 24.8619C32.9292 24.8619 32.9292 24.6377 32.9292 24.8619C32.9292 24.6377 32.9292 24.6377 32.9292 24.8619L38.3108 22.1711L32.9292 24.8619C32.9292 24.6377 32.9292 24.6377 32.9292 24.8619C32.9292 24.6377 33.1534 24.6377 32.9292 24.8619L38.5349 22.8438L32.9292 24.8619C33.1534 24.6377 32.9292 24.8619 32.9292 24.8619Z" fill="#7A361D"/>
<path d="M38.5346 22.1719L34.7227 23.9658L38.5346 22.3962V22.1719Z" fill="#7A361D"/>
<path d="M36.5181 22.6232C35.6212 22.6232 35.1728 23.0716 34.5001 23.0716C33.8274 23.0716 33.3789 23.5201 33.1546 23.5201C32.9304 23.5201 32.7063 23.5201 32.7063 23.5201C32.7063 23.5201 32.9305 23.7443 33.379 23.7443C33.8274 23.7443 33.8274 23.2959 34.7243 23.5201C35.6212 23.5201 35.8455 23.0716 36.7424 23.2959V22.6232H36.5181Z" fill="#F1BD51"/>
<path d="M33.1537 23.7436C32.9294 23.7436 32.7053 23.7436 32.7053 23.5194C32.7053 23.5194 32.7053 23.5194 32.9295 23.5194C32.9295 23.5194 33.1538 23.5194 33.378 23.5194C33.378 23.5194 33.6022 23.5194 33.6022 23.2952C33.8264 23.071 34.2748 22.8467 34.7233 23.071C35.1718 23.071 35.396 23.071 35.6203 22.8467C35.8445 22.6225 36.293 22.6225 36.7414 22.6225C36.293 22.6225 36.0687 22.6225 35.6203 22.8467C35.396 23.071 34.9475 23.071 34.7233 23.071C34.2748 23.071 33.8264 23.2952 33.6022 23.2952C33.3779 23.2952 33.1537 23.5194 33.1537 23.7436C33.1537 23.5194 32.9295 23.5194 32.9295 23.5194C32.7053 23.5194 32.9294 23.7436 33.1537 23.7436C33.3779 23.7436 33.6022 23.5194 33.6022 23.5194C33.8264 23.5194 34.0506 23.2952 34.7233 23.2952C35.1718 23.2952 35.396 23.2952 35.6203 23.071C35.8445 23.071 36.0687 22.8467 36.5171 22.8467C36.0687 22.8467 35.8445 22.8467 35.6203 23.071C35.396 23.071 35.1718 23.2952 34.7233 23.2952C34.0506 23.2952 33.8264 23.2952 33.6022 23.5194C33.3779 23.5194 33.3779 23.5194 33.1537 23.7436Z" fill="#7A361D"/>
<path d="M36.5165 22.846C35.6195 22.846 35.3953 23.2945 34.7227 23.2945C35.1711 23.2945 35.6195 22.846 36.5165 22.846Z" fill="#7A361D"/>
<path d="M38.7588 22.6196L44.1404 20.1531C44.1404 20.1531 44.1404 20.1531 44.1404 19.9289H43.9162L38.5347 22.1712L38.7588 22.6196Z" fill="#F1BD51"/>
<path d="M38.7588 22.622L44.1404 20.1555L38.5347 22.1735L44.1404 20.1555H44.3646V20.3797L38.7588 22.622Z" fill="#7A361D"/>
<path d="M38.5347 22.3953L42.3466 20.8257L38.5347 22.1711V22.3953Z" fill="#7A361D"/>
<path d="M40.5527 22.1716C41.4496 22.1716 41.898 21.7231 42.5707 21.7231C43.2434 21.7231 43.6919 21.2746 43.9161 21.2746C44.1404 21.2746 44.3645 21.2746 44.3645 21.2746C44.3645 21.2746 44.1403 21.0504 43.6918 21.0504C43.2434 21.0504 43.2434 21.4989 42.3465 21.2746C41.4496 21.2746 41.2253 21.7231 40.3284 21.4989V22.1716H40.5527Z" fill="#F1BD51"/>
<path d="M40.5532 22.1716C41.0017 22.1716 41.2258 21.9473 41.4501 21.9473C41.6743 21.7231 42.1228 21.7231 42.347 21.7231C42.7955 21.7231 43.244 21.4989 43.4682 21.4989C43.4682 21.4989 43.6924 21.4989 43.6924 21.2746C43.9166 21.2746 43.9166 21.2746 44.1408 21.2746C44.1408 21.0504 43.9166 21.0504 43.4682 21.0504C43.244 21.0504 43.2439 21.0504 43.0197 21.2746C42.7955 21.2746 42.5712 21.4989 41.8985 21.4989C41.4501 21.4989 41.2258 21.4989 41.0016 21.7231C40.7773 21.7231 40.5532 21.9473 40.1047 21.9473C40.5532 21.9473 40.7773 21.9473 41.0016 21.7231C41.2258 21.7231 41.4501 21.4989 41.8985 21.4989C42.5712 21.4989 42.7955 21.4989 43.0197 21.2746C43.2439 21.2746 43.244 21.2746 43.4682 21.0504C43.6924 21.0504 43.9166 21.0504 44.1408 21.2746C44.1408 21.2746 44.1409 21.2746 43.9167 21.2746C43.9167 21.2746 43.6924 21.2746 43.4682 21.2746C43.4682 21.2746 43.2439 21.2746 43.2439 21.4989C43.0196 21.7231 42.5712 21.9473 42.1227 21.7231C41.6743 21.7231 41.4501 21.7231 41.2259 21.9473C41.4501 21.9473 41.0017 22.1716 40.5532 22.1716Z" fill="#7A361D"/>
<path d="M40.7769 21.9501C41.6738 21.9501 41.898 21.5016 42.5707 21.5016C42.1222 21.5016 41.6738 21.9501 40.7769 21.9501Z" fill="#7A361D"/>
<path d="M38.7595 22.1743L36.293 16.7928C36.293 16.7928 36.2931 16.7928 36.0688 16.7928V17.017L38.0868 22.6228L38.7595 22.1743Z" fill="#F1BD51"/>
<path d="M38.3108 22.3985L36.2927 16.7928L38.7592 22.1743L36.2927 16.7928L38.3108 22.3985Z" fill="#7A361D"/>
<path d="M38.7587 22.3964L36.9648 18.5845L38.5345 22.3964H38.7587Z" fill="#7A361D"/>
<path d="M38.3116 20.3781C38.3116 19.4811 37.8631 19.0327 37.8631 18.36C37.8631 17.6873 37.4146 17.2389 37.4146 17.0146C37.4146 16.7904 37.4146 16.5662 37.4146 16.5662C37.4146 16.5662 37.1904 16.7904 37.1904 17.2389C37.1904 17.6873 37.6388 17.6873 37.4146 18.5842C37.4146 19.4811 37.863 19.7054 37.6388 20.6023L38.3116 20.3781Z" fill="#F1BD51"/>
<path d="M38.3116 20.3762C38.3116 19.9277 38.0873 19.7035 38.0873 19.255C37.863 19.0308 37.8631 18.5823 37.8631 18.3581C37.8631 17.9096 37.6388 17.4612 37.6388 17.237C37.6388 17.237 37.6388 17.0127 37.4146 17.0127C37.4146 16.7885 37.4146 16.7885 37.4146 16.5643C37.1904 16.5643 37.1904 16.7885 37.1904 17.237C37.1904 17.4612 37.1904 17.4612 37.4146 17.6854C37.4146 17.9096 37.6388 18.1339 37.6388 18.8066C37.6388 19.255 37.6389 19.4793 37.8631 19.7035C37.8631 19.9277 38.0873 20.1519 38.0873 20.6004C38.0873 20.1519 38.0873 19.9277 37.8631 19.7035C37.8631 19.4793 37.6388 19.255 37.6388 18.8066C37.6388 18.1339 37.6388 17.9096 37.4146 17.6854C37.4146 17.4612 37.4147 17.4612 37.1904 17.237C37.1904 17.0127 37.1904 16.7885 37.4146 16.5643C37.4146 16.5643 37.4146 16.5643 37.4146 16.7885C37.4146 16.7885 37.4146 17.0127 37.4146 17.237C37.4146 17.237 37.4145 17.4612 37.6388 17.4612C37.863 17.6854 38.0873 18.1339 37.8631 18.5823C37.8631 19.0308 37.863 19.255 38.0873 19.4793C38.3115 19.7035 38.3116 19.9277 38.3116 20.3762Z" fill="#7A361D"/>
<path d="M38.3114 20.1556C38.3114 19.2587 37.8629 19.0344 37.8629 18.3618C37.6386 19.0344 38.0871 19.4829 38.3114 20.1556Z" fill="#7A361D"/>
<path d="M38.312 22.3957L40.7785 27.7772V27.5529L38.7604 21.9472L38.312 22.3957Z" fill="#F1BD51"/>
<path d="M41.0019 28.0011C40.7777 28.0011 40.7777 28.0011 41.0019 28.0011L38.3113 22.3954L41.0019 28.0011C40.7777 28.0011 40.7777 28.0011 41.0019 28.0011C41.0019 28.0011 41.0019 27.7769 41.0019 28.0011L38.9839 22.1711L41.0019 28.0011Z" fill="#7A361D"/>
<path d="M38.5347 22.3985L40.1043 26.2104L38.7588 22.3985H38.5347Z" fill="#7A361D"/>
<path d="M38.7603 24.4145C38.7603 25.3115 39.2087 25.7599 39.2087 26.4326C39.2087 27.1053 39.6572 27.5538 39.6572 27.778C39.6572 28.0022 39.6572 28.2264 39.6572 28.2264C39.6572 28.2264 39.8814 28.0022 39.8814 27.5538C39.8814 27.1053 39.433 27.1053 39.6572 26.2084C39.6572 25.3115 39.2088 25.0872 39.4331 24.1903L38.7603 24.4145Z" fill="#F1BD51"/>
<path d="M39.6572 28.4492C39.6572 28.225 39.6572 28.225 39.6572 28.4492C39.6572 28.225 39.6572 28.0008 39.6572 28.0008C39.6572 28.0008 39.6573 27.7765 39.4331 27.7765C39.2088 27.5523 38.9845 27.1038 39.2087 26.6554C39.2087 26.2069 39.2088 25.9827 38.9846 25.7585C38.7603 25.5342 38.7603 25.0858 38.7603 24.6373C38.7603 25.0858 38.7603 25.31 38.9846 25.7585C39.2088 25.9827 39.2087 26.4312 39.2087 26.6554C39.2087 27.1038 39.4331 27.5523 39.4331 27.7765C39.4331 27.7765 39.433 28.0008 39.6572 28.0008C39.6572 28.0008 39.6572 28.225 39.6572 28.4492C39.6572 28.225 39.6572 28.225 39.6572 28.4492C39.8815 28.4492 39.8814 28.225 39.8814 27.7765C39.8814 27.5523 39.8815 27.5523 39.6572 27.3281C39.6572 27.1038 39.4331 26.8796 39.4331 26.2069C39.4331 25.7585 39.433 25.5342 39.2087 25.31C39.2087 25.0858 38.9846 24.8615 38.9846 24.4131C38.9846 24.8615 38.9845 25.0858 39.2087 25.31C39.2087 25.5342 39.4331 25.7585 39.4331 26.2069C39.4331 26.8796 39.433 27.1038 39.6572 27.3281C39.6572 27.5523 39.6572 27.5523 39.8814 27.7765C39.8814 28.0008 39.8815 28.225 39.6572 28.4492Z" fill="#7A361D"/>
<path d="M38.9841 24.4131C38.9841 25.31 39.4326 25.5342 39.4326 26.2069C39.6568 25.7585 38.9841 25.31 38.9841 24.4131Z" fill="#7A361D"/>
<path d="M38.5353 19.9289C39.8807 19.9289 41.0018 21.05 41.0018 22.3954C41.0018 23.7408 39.8807 24.8619 38.5353 24.8619C37.1899 24.8619 36.0688 23.7408 36.0688 22.3954C36.0688 21.05 37.1899 19.9289 38.5353 19.9289Z" fill="#F1BD51"/>
<path d="M38.5353 24.8619C37.1899 24.8619 36.0688 23.7408 36.0688 22.3954C36.0688 21.05 37.1899 19.9289 38.5353 19.9289C39.8807 19.9289 41.0018 21.05 41.0018 22.3954C41.0018 23.7408 39.8807 24.8619 38.5353 24.8619ZM38.5353 19.9289C37.1899 19.9289 36.0688 21.05 36.0688 22.3954C36.0688 23.7408 37.1899 24.8619 38.5353 24.8619C39.8807 24.8619 41.0018 23.7408 41.0018 22.3954C41.0018 21.05 39.8807 19.9289 38.5353 19.9289Z" fill="#7A361D"/>
<path d="M40.1054 21.9471C39.657 21.4987 39.2084 21.4987 38.76 21.7229C38.5357 21.9471 38.5357 22.3956 38.76 22.6198C38.5357 22.1714 38.5357 21.9471 38.76 21.4987C39.2084 21.2744 39.657 21.2744 40.1054 21.9471Z" fill="#7A361D"/>
<path d="M39.4331 21.7244C39.2088 21.7244 39.2088 21.7244 38.9846 21.9487C38.7603 21.9487 38.7603 21.9487 38.7603 21.9487C38.7603 21.9487 38.9846 21.9487 38.9846 21.7244C39.2088 21.7244 39.4331 21.7244 39.4331 21.7244C39.6573 21.7244 39.8814 22.1729 39.8814 21.9487C40.1056 21.9487 39.8815 21.7244 39.4331 21.7244Z" fill="#7A361D"/>
<path d="M39.881 21.9497C39.6567 21.7255 39.2084 21.7255 38.9841 21.9497C39.2084 21.7255 39.6567 21.9497 39.881 21.9497Z" fill="#7A361D"/>
<path d="M39.4321 21.9472C39.4321 21.9472 39.6563 21.9472 39.4321 21.9472C39.6563 22.1714 39.4321 22.3957 39.4321 22.3957C39.2079 22.1714 39.2079 22.1714 39.4321 21.9472C39.2079 21.9472 39.2079 21.9472 39.4321 21.9472Z" fill="#7A361D"/>
<path d="M38.9841 22.1719C39.2084 22.3962 39.6567 22.3962 39.881 22.1719H39.6568C39.6568 22.1719 39.2084 22.1719 38.9841 22.1719Z" fill="#7A361D"/>
<path d="M39.8814 22.1719C39.6572 22.3962 39.2088 22.3962 38.9846 22.3962C38.7603 22.1719 38.7603 22.1719 38.7603 22.1719C38.7603 22.1719 38.7603 22.1719 38.9846 22.1719C39.2088 22.3962 39.4329 22.3962 39.8814 22.1719Z" fill="#7A361D"/>
<path d="M38.9832 22.6232C38.9832 22.6232 38.9832 22.8474 38.9832 22.6232C38.9832 22.8474 38.9832 22.8474 38.9832 22.6232C38.7589 22.8474 38.7589 22.8474 38.9832 22.6232C38.7589 22.8474 38.7589 22.8474 38.5347 22.8474H38.7588H38.9832C39.2074 22.8474 39.2074 22.8474 38.9832 22.6232C38.9832 22.8474 38.9832 22.6232 38.9832 22.6232Z" fill="#7A361D"/>
<path d="M39.2073 23.5158C38.9831 23.5158 38.9831 23.2916 38.7588 23.2916H38.5347H38.7588C38.9831 23.2916 39.2073 23.5158 39.2073 23.5158Z" fill="#7A361D"/>
<path d="M39.2073 23.52C38.7589 23.52 38.9831 23.7442 38.5347 23.7442C38.9831 23.7442 38.7589 23.52 39.2073 23.52Z" fill="#7A361D"/>
<path d="M38.9834 24.1918C38.9834 23.9675 38.7591 23.9675 38.5349 23.9675C38.3107 23.9675 38.0864 24.1918 38.0864 24.1918C38.0864 23.9675 38.3107 23.9675 38.5349 23.9675C38.7591 23.9675 38.9834 23.9675 38.9834 24.1918Z" fill="#7A361D"/>
<path d="M36.9648 21.9471C37.4133 21.4987 37.8618 21.4987 38.3103 21.7229C38.5345 21.9471 38.5345 22.3956 38.3103 22.6198C38.5345 22.1714 38.5345 21.9471 38.3103 21.4987C38.0861 21.2744 37.4133 21.2744 36.9648 21.9471Z" fill="#7A361D"/>
<path d="M37.6375 21.7244C37.8617 21.7244 37.8618 21.7244 38.086 21.9487H38.3103C38.3103 21.9487 38.3102 21.9487 38.086 21.7244C37.8618 21.7244 37.8617 21.7244 37.6375 21.7244C37.189 21.7244 37.1891 22.1729 36.9648 21.9487C37.1891 21.9487 37.4133 21.7244 37.6375 21.7244Z" fill="#7A361D"/>
<path d="M37.1904 21.9497C37.4147 21.7255 37.863 21.7255 38.0873 21.9497C37.863 21.7255 37.4147 21.9497 37.1904 21.9497Z" fill="#7A361D"/>
<path d="M37.8623 21.9472C37.638 21.9472 37.638 21.9472 37.8623 21.9472C37.638 22.1714 37.8623 22.3957 37.8623 22.3957C37.8623 22.1714 37.8623 22.1714 37.8623 21.9472Z" fill="#7A361D"/>
<path d="M38.0873 22.1719C37.863 22.3962 37.4147 22.3962 37.1904 22.1719H37.4146C37.6388 22.1719 37.863 22.1719 38.0873 22.1719Z" fill="#7A361D"/>
<path d="M37.1904 22.1719C37.4147 22.3962 37.863 22.3962 38.0873 22.3962C38.3115 22.1719 38.3116 22.1719 38.3116 22.1719C38.3116 22.1719 38.3115 22.1719 38.0873 22.1719C37.863 22.3962 37.6389 22.3962 37.1904 22.1719Z" fill="#7A361D"/>
<path d="M38.0864 22.6232C38.0864 22.6232 38.0864 22.8474 38.0864 22.6232C38.0864 22.8474 38.3107 22.8474 38.0864 22.6232C38.3107 22.8474 38.3107 22.8474 38.0864 22.6232C38.3107 22.8474 38.3107 22.8474 38.5349 22.8474H38.3107H38.0864C38.0864 22.8474 38.0864 22.8474 38.0864 22.6232C38.0864 22.8474 38.0864 22.6232 38.0864 22.6232Z" fill="#7A361D"/>
<path d="M37.8625 23.5158C38.0868 23.5158 38.0868 23.2916 38.311 23.2916H38.5352H38.311C38.0868 23.2916 38.0868 23.5158 37.8625 23.5158Z" fill="#7A361D"/>
<path d="M37.8625 23.52C38.311 23.52 38.0868 23.7442 38.5352 23.7442C38.0868 23.7442 38.311 23.52 37.8625 23.52Z" fill="#7A361D"/>
<path d="M38.312 24.1918C38.312 23.9675 38.5361 23.9675 38.7604 23.9675C38.9846 23.9675 39.2088 24.1918 39.2088 24.1918C39.2088 23.9675 38.9846 23.9675 38.7604 23.9675C38.3119 23.9675 38.312 23.9675 38.312 24.1918Z" fill="#7A361D"/>
</svg>
