<svg width="32" height="33" viewBox="0 0 32 33" fill="none" xmlns="http://www.w3.org/2000/svg">
<path d="M26.7601 25.0693L23.1662 13.4835C23.3103 13.3267 23.4548 13.1689 23.5998 13.009L25.3667 11.0607C25.9603 10.4061 26.3573 9.59599 26.5148 8.71799L26.605 8.2147C26.7065 7.64869 26.5275 7.06482 26.1263 6.65291C25.725 6.24096 25.1459 6.04656 24.5776 6.13331L24.072 6.21027C23.1901 6.34457 22.3699 6.7201 21.6999 7.29632L19.7058 9.01136C19.5388 9.15501 19.3739 9.29811 19.2103 9.44095L8.17107 6.00037L5.66544 8.44093L14.108 14.325C13.055 15.4372 12.0161 16.6052 10.9438 17.8773L10.3227 18.6589L6.55089 18.8856L5.00006 20.7393L7.68066 22.3204C7.62082 22.4967 7.57475 22.6778 7.54326 22.8619L7.42116 23.5758C7.34921 23.9966 7.49341 24.4207 7.80693 24.7104C8.04247 24.9281 8.34609 25.0445 8.65804 25.0445C8.87457 25.0575 9.45495 24.8738 9.67153 24.8275C9.78747 24.7982 9.9012 24.7631 10.0126 24.7228L11.5421 27.537L13.4213 25.9231L13.7519 22.103L14.4918 21.5462L14.5064 21.5348C15.809 20.4941 17.0064 19.4841 18.148 18.4585L24.2528 27.5114L26.7601 25.0693ZM24.2645 7.47393L24.77 7.39696C24.9342 7.37197 25.0947 7.42586 25.2106 7.54477C25.3265 7.66373 25.3761 7.82566 25.3468 7.98911L25.2565 8.49244C25.1415 9.13415 24.8522 9.72528 24.4198 10.202L24.2319 10.4092C24.0025 9.45234 23.272 8.7023 22.3214 8.44777L22.5335 8.2654C23.0214 7.84576 23.62 7.57206 24.2645 7.47393ZM7.66575 8.27696L8.51757 7.44724L18.0946 10.4321C17.0157 11.4083 15.9991 12.3825 15.0067 13.3932L7.66575 8.27696ZM7.17763 20.1285L9.25401 20.0037L8.30142 21.2025L6.94733 20.4038L7.17763 20.1285ZM12.1927 25.2933L11.9096 25.5365L11.12 24.0836L12.3795 23.1358L12.1927 25.2933ZM13.7157 20.5305L10.1675 23.2006C9.92462 23.3833 9.65215 23.5138 9.35754 23.5884L8.68672 23.7584L8.80317 23.0774C8.8676 22.7008 9.02723 22.3437 9.26489 22.0446L11.927 18.6941C14.7368 15.3617 17.3127 12.7555 20.5393 9.98045L21.1079 9.49144L21.9193 9.66484C22.4746 9.7835 22.9007 10.2209 23.0047 10.7792L23.1567 11.5948L22.6529 12.1503C19.794 15.3027 17.1206 17.8096 13.7157 20.5305ZM22.161 14.5574L25.3072 24.7L24.457 25.5281L19.1013 17.5861C20.144 16.6146 21.1505 15.6176 22.161 14.5574Z" fill="#6A7BFF" stroke="#6A7BFF" stroke-width="0.5"/>
</svg>
