<svg width="18" height="18" viewBox="0 0 18 18" fill="none" xmlns="http://www.w3.org/2000/svg">
<path d="M2.41175 9.79608H6.21829C10.1891 9.79608 13.4196 6.82829 13.4196 3.18038C13.4196 2.95298 13.604 2.76862 13.8314 2.76862H15.5882C15.8156 2.76862 16 2.95298 16 3.18038V14.8196C16 15.047 15.8156 15.2314 15.5882 15.2314H13.8314C13.604 15.2314 13.4196 15.047 13.4196 14.8196V12.2597L10.2902 14.1721V14.8196C10.2902 15.047 10.1058 15.2314 9.87842 15.2314H8.12155C7.89415 15.2314 7.70979 15.047 7.70979 14.8196V13.2549H4.58038V14.8196C4.58038 15.047 4.39602 15.2314 4.16861 15.2314H2.41175C2.18435 15.2314 1.99998 15.047 1.99998 14.8196V10.2078C1.99998 9.98044 2.18435 9.79608 2.41175 9.79608ZM14.2431 14.4078H15.1765V3.59215H14.2431V14.4078ZM10.2902 13.207L13.4196 11.2945V9.84398L10.2902 11.7564V13.207ZM10.2902 10.7913L13.4196 8.87886V6.47126C12.706 7.81043 11.5848 8.88511 10.2902 9.59404V10.7913ZM8.53332 14.4078H9.46665V9.98722C9.16332 10.1117 8.85167 10.2183 8.53332 10.3068V14.4078ZM4.58038 12.4314H7.70979V10.4916C6.7792 10.6528 6.23051 10.6196 4.58038 10.6196V12.4314ZM2.82351 14.4078H3.75685V10.6196H2.82351V14.4078Z" fill="#6A7BFF"/>
</svg>
