<svg width="18" height="18" viewBox="0 0 18 18" fill="none" xmlns="http://www.w3.org/2000/svg">
<path d="M2 12.8608C2 13.5241 2.756 14.0483 4.247 14.4189C5.52505 14.7366 7.21303 14.9116 9 14.9116C10.787 14.9116 12.475 14.7366 13.753 14.4189C15.244 14.0484 16 13.5241 16 12.8608C16 12.2102 15.2751 11.6959 13.8433 11.3276C15.1717 10.0579 16 8.2727 16 6.29831V5.88816H15.5898C14.8589 5.88816 14.1261 6.00188 13.4402 6.21877C13.326 4.86627 12.8544 3.98503 12.7736 3.75059C12.5488 3.85991 11.5954 4.14789 10.5598 5.02407C10.2331 4.39215 9.80749 3.80746 9.29004 3.29001L9 3L8.70999 3.29004C8.19254 3.80749 7.76688 4.39218 7.4402 5.02407C6.408 4.15082 5.45486 3.86168 5.22643 3.75061C5.14874 3.97584 4.67416 4.86463 4.55984 6.2188C3.87389 6.00191 3.14108 5.88816 2.41016 5.88816H2V6.29831C2 8.27267 2.82827 10.0579 4.15666 11.3276C2.72486 11.6959 2 12.2102 2 12.8608H2ZM13.4589 7.07791C13.9988 6.88279 14.5784 6.76217 15.1651 6.72277C14.9924 9.23407 13.299 11.3358 10.9972 12.1206C12.513 10.8395 13.3815 8.97726 13.4589 7.07791ZM12.3219 4.84108C13.1343 7.25143 12.3561 9.83093 10.5623 11.412C11.0654 10.4369 11.3323 9.34925 11.3323 8.22044C11.3323 7.38525 11.186 6.57263 10.9063 5.81135C11.3303 5.42268 11.8043 5.0977 12.3219 4.84108ZM8.99989 4.18046C11.0121 6.48852 11.0121 9.95234 8.99989 12.2604C8.02191 11.1403 7.48803 9.72142 7.48803 8.22041C7.48803 6.71941 8.02191 5.30048 8.99989 4.18046ZM5.67828 4.84116C6.19573 5.09776 6.66979 5.42277 7.09368 5.81135C6.81403 6.57263 6.66772 7.38523 6.66772 8.22044C6.66772 9.34684 6.93344 10.4323 7.43446 11.4057C5.62608 9.80296 4.87782 7.22198 5.67828 4.84116ZM2.83486 6.72277C3.42157 6.76217 4.00115 6.88279 4.54108 7.07791C4.61838 8.97565 5.48575 10.8386 7.00273 12.1206C4.70096 11.3358 3.00756 9.23407 2.83486 6.72277ZM4.95635 11.9869C6.05543 12.7643 7.38852 13.234 8.82793 13.2688H9.17205C10.6114 13.2341 11.9445 12.7644 13.0436 11.9869C14.0926 12.1989 15.1592 12.5997 15.1797 12.8608C15.1797 13.1531 13.8438 13.5511 13.5551 13.6229C12.3399 13.9249 10.7222 14.0913 9 14.0913C7.27781 14.0913 5.66007 13.9249 4.44489 13.6229C4.15753 13.5514 2.82031 13.1533 2.82031 12.8609C2.84558 12.5134 4.36813 12.1058 4.95635 11.9869Z" fill="#6A7BFF" stroke="#6A7BFF" stroke-width="0.2"/>
</svg>
