<svg width="18" height="18" viewBox="0 0 18 18" fill="none" xmlns="http://www.w3.org/2000/svg">
<path d="M8.61397 2.2403C8.68646 2.09345 8.83601 2.00049 8.99978 2.00049C9.16356 2.00046 9.31313 2.09343 9.38562 2.24027L11.0638 5.64013C11.2216 5.95981 11.5266 6.18145 11.8795 6.23269L15.6316 6.77813C15.7937 6.8017 15.9283 6.91521 15.9789 7.07097C16.0295 7.22671 15.9874 7.3977 15.8701 7.51203L13.1552 10.1587C12.8999 10.4076 12.7834 10.7662 12.8436 11.1175L13.4842 14.854C13.5119 15.0154 13.4456 15.1785 13.313 15.2747C13.1806 15.371 13.0049 15.3836 12.86 15.3074L9.50389 13.5434C9.18833 13.3775 8.81132 13.3775 8.4957 13.5434L5.13993 15.3074C4.99495 15.3836 4.8193 15.3709 4.68683 15.2746C4.55432 15.1784 4.488 15.0152 4.51567 14.8539L5.15654 11.1177C5.21684 10.7662 5.10033 10.4076 4.84498 10.1587L2.12994 7.51206C2.01269 7.39773 1.97045 7.22674 2.02107 7.071C2.07169 6.91526 2.20632 6.80176 2.36839 6.77816L6.12043 6.23275C6.47326 6.18145 6.77829 5.95984 6.9361 5.6401L8.61397 2.2403Z" fill="white"/>
</svg>
